 <svg version="1.1" id="Layer_1" xmlns="http://www.w3.org/2000/svg" xmlns:xlink="http://www.w3.org/1999/xlink" x="0px" y="0px"
          width="612px" height="120.2px" viewBox="0 331.7 612 120.2" enable-background="new 0 331.7 612 120.2" xml:space="preserve">
       <g>
         <g>
           <path fill="none" d="M310.9,485.883c-98.335,0-196.67-0.002-295.006,0.029c-0.946,0-1.038-0.275-1.038-1.096
             c0.02-56.054,0.021-112.105-0.01-168.157c0-0.946,0.274-1.038,1.095-1.038c196.67,0.019,393.34,0.019,590.012-0.01
             c0.945,0,1.037,0.274,1.037,1.095c-0.021,56.053-0.021,112.104,0.01,168.157c0,0.946-0.275,1.039-1.096,1.039
             C507.571,485.883,409.235,485.883,310.9,485.883z M163.835,451.9c0.678-0.701,1.557-0.05,2.401-0.382
             c1.371-0.538,2.717-1.172,4.166-1.536c0.666-0.168,1.302,0.258,1.927-0.086c0.87-0.479,1.854-0.371,2.778-0.556
             c0.994-0.194,2.107-0.061,2.969-0.735c0.587-0.462,1.238-0.449,1.882-0.349c0.31,0.049,0.573,0.07,0.885,0.012
             c1.776-0.34,3.546-0.793,5.326-1.012c2.208-0.27,4.372-0.875,6.566-0.979c0.921-0.043,1.657-1.566,2.69-0.354
             c0.038,0.045,0.303-0.123,0.469-0.164c0.903-0.223,1.798-0.524,2.715-0.635c2.042-0.246,4.121-0.25,6.135-0.619
             c2.01-0.369,4.076-0.057,6.05-0.646c0.126-0.039,0.299-0.045,0.412,0.01c0.643,0.318,1.205,0.02,1.774-0.207
             c0.848-0.34,1.616-1.076,2.646-0.459c0.125,0.074,0.407-0.037,0.578-0.131c0.415-0.229,0.858-0.246,1.309-0.258
             c1.776-0.048,3.525-0.205,5.206-0.88c0.544-0.219,1.253-0.299,1.737,0.115c0.581,0.494,1.144,0.443,1.727,0.189
             c1.308-0.574,2.688-0.371,4.042-0.451c1.195-0.07,2.415-0.031,3.575-0.275c0.718-0.149,1.333-0.948,2.055-0.022
             c0.035,0.043,0.25-0.082,0.38-0.082c1.362,0.012,2.681-0.521,4.067-0.271c0.815,0.146,1.639-0.047,2.458-0.102
             c0.783-0.051,1.432-0.496,2.296-0.416c1.077,0.1,2.141-0.471,3.333-0.217c0.833,0.178,1.719-0.359,2.663-0.379
             c0.855-0.017,1.737,0.108,2.625-0.072c0.686-0.142,1.492-0.494,2.066-0.342c1.543,0.412,3.004-0.293,4.556-0.039
             c1.118,0.182,2.225-0.804,3.645-0.351c0.928,0.297,2.149-0.104,3.264,0.088c1.854,0.32,3.627-0.467,5.467-0.573
             c1.103-0.064,2.245-0.152,3.319-0.105c2.008,0.09,4.021,0.123,6.03,0.226c0.663,0.034,1.339,0.028,1.879-0.406
             c0.842-0.681,1.668-0.998,2.615-0.195c0.065,0.055,0.34-0.059,0.459-0.16c0.539-0.465,1.055-0.354,1.65-0.084
             c0.432,0.195,0.785,0.556,1.389,0.457c1.387-0.229,2.803-0.078,4.201-0.141c1.121-0.049,2.296-0.148,3.324-0.545
             c0.65-0.252,1.23-0.332,1.777-0.129c0.518,0.19,0.987,0.271,1.494,0.146c0.555-0.137,1.084,0.084,1.607,0.076
             c1.253-0.021,2.425,0.59,3.74,0.291c0.538-0.121,1.267-0.266,1.868-0.021c0.563,0.232,0.949,0.076,1.249-0.375
             c0.206-0.313,0.378-0.508,0.712-0.166c0.521,0.533,1.049,0.996,1.777,0.279c0.125-0.123,0.354-0.092,0.48,0.041
             c0.37,0.391,0.695,0.033,1.031,0.027c0.834-0.021,1.729-0.566,2.391-0.273c0.949,0.42,1.859-0.125,2.793,0.281
             c0.712,0.313,1.626,0.232,2.447,0.205c0.977-0.031,1.981-0.064,2.922,0.006c1.203,0.09,2.396-0.416,3.58,0.016
             c0.115,0.041,0.229-0.106,0.276-0.258c0.229-0.752,0.218-0.651,0.854-0.561c0.83,0.121,1.689,0.151,2.523-0.031
             c0.202-0.045,0.446-0.207,0.526,0.029c0.336,0.985,1.256,0.936,1.896,0.83c1.17-0.193,2.229-0.382,3.448-0.017
             c1.521,0.453,3.166,0.084,4.763,0.224c1.617,0.141,3.242,0.063,4.883-0.105c1.941-0.201,3.932,0.145,5.9,0.121
             c1.387-0.016,2.725-0.631,4.168-0.357c0.469,0.088,0.909,0.091,1.311,0.404c0.432,0.34,2.65,0.109,3.008-0.285
             c0.558-0.617,0.982-0.504,1.332,0.205c0.229,0.463,0.357,0.598,1.058,0.396c1.483-0.433,3.125-0.841,4.645-0.23
             c1.064,0.426,2.176,0.531,3.111,0.236c1.008-0.318,2.1,1.076,2.922-0.263c0.029,0.021,0.074,0.031,0.086,0.058
             c0.449,0.91,1.295,0.363,1.932,0.467c1.359,0.221,1.74,0.021,2.717-0.727c0.199-0.15,0.447-0.091,0.681,0.055
             c0.246,0.152,0.117,0.57,0.473,0.619c0.445-0.691,0.42-0.592,1.299-0.381c0.582,0.141,1.188,0.475,1.715,0.438
             c1.384-0.094,2.729,0.402,4.136,0.033c1.785-0.469,3.592,0.031,5.387,0.182c0.418,0.035,0.824,0.17,1.305-0.063
             c0.404-0.199,1.254-0.313,1.42-0.191c0.591,0.432,1.107,0.127,1.658,0.16c0.678,0.041,1.34-0.098,2.027-0.012
             c0.979,0.123,2.057,0.6,2.902-0.441c0.096-0.117,0.485-0.094,0.688-0.01c0.441,0.184,0.887,0.141,1.336,0.137
             c1.08-0.008,2.133-0.106,3.242,0.152c1.217,0.287,2.49,0.715,3.777,0.447c2.34-0.484,4.686,0.143,7.041-0.08
             c0.795-0.076,1.604-0.013,2.364-0.328c0.676-0.281,1.322-0.644,2.021-0.047c0.174,0.147,0.41,0.086,0.586-0.037
             c1.229-0.867,2.617-0.467,3.916-0.394c2.018,0.113,4.024,0.439,6.033,0.711c1.1,0.148,2.211-0.153,3.282,0.031
             c1.328,0.23,2.59,0.266,3.879-0.197c0.296-0.106,0.642-0.319,1.074-0.137c1.189,0.504,2.408,0.914,3.676,0.156
             c0.185-0.111,0.48-0.021,0.718-0.066c2.108-0.41,4.282,0.334,6.377-0.358c0.11-0.037,0.33-0.013,0.377,0.063
             c0.309,0.494,0.516,0.107,0.821-0.018c0.671-0.275,1.408-1.177,2.063,0.065c0.072,0.14,0.357,0.224,0.549,0.229
             c1.342,0.043,2.685,0.082,4.025,0.076c0.549,0,1.1,0.396,1.621,0.102c1.012-0.57,2.114-0.232,3.153-0.305
             c0.98-0.068,1.979,0.303,3.029,0.248c1.688-0.086,3.396-0.033,5.076,0.139c1.459,0.148,2.854-0.621,4.305-0.164
             c0.742,0.236,1.467,0.09,2.229,0.004c1.514-0.174,3.047-0.578,4.582-0.063c0.258,0.086,0.573,0.2,0.807,0.127
             c1.193-0.381,2.551,0.397,3.666-0.527c0.104-0.084,0.352-0.051,0.51,0c1.943,0.623,3.92,0.133,5.879,0.176
             c1.859,0.039,3.732-0.438,5.58,0.197c0.254,0.088,0.644,0.131,0.826-0.24c0.314-0.641,0.803-0.324,1.23-0.211
             c0.295,0.076,0.565,0.34,0.852,0.346c1.709,0.035,3.436-0.502,5.123,0.199c0.107,0.045,0.285-0.01,0.402-0.074
             c0.646-0.354,1.379-0.362,2.069-0.534c1.017-0.254,2.105-0.193,3.021,0.104c0.717,0.232,1.264,0.332,1.881-0.008
             c0.779-0.43,1.506,0.256,2.15,0.141c1.069-0.192,2.133,0.063,3.235-0.209c0.683-0.168,1.808-0.5,2.629,0.199
             c0.236,0.199,0.48-0.024,0.675-0.123c1.051-0.522,2.084-0.66,3.291-0.496c0.771,0.105,1.653,0.097,2.514-0.043
             c1.551-0.248,3.137-0.633,4.705,0.313c0.438,0.262,1.322,0.262,1.973,0.188c2.777-0.311,5.57-0.02,8.353-0.35
             c1.694-0.201,3.442,0.063,5.084-0.627c0.229-0.099,0.479-0.242,0.76,0.016c0.436,0.402,0.963,0.26,1.445,0.086
             c0.313-0.11,0.618-0.164,0.909-0.051c1.281,0.492,2.675-0.424,3.931,0.32c1.348-0.873,2.862,0.68,4.203-0.289
             c0.885,0.604,1.741-0.207,2.698-0.099c1.064,0.119,2.406,0.843,3.511-0.172c0.094-0.086,0.336-0.028,0.508-0.012
             c1.975,0.199,3.942,0.695,5.932,0.094c0.113-0.033,0.256,0.021,0.383,0.049c1.16,0.257,2.297,0.601,3.521,0.281
             c0.514-0.133,1.221-0.229,1.613,0.019c1.168,0.737,2.475,0.241,3.629,0.317c1.205,0.082,2.383,0.074,3.567,0.445
             c0.531,0.166,1.078,0.336,1.695,0.313c0.568-0.021,0.981-0.379,1.012-0.655c0.047-0.447-0.551-0.189-0.817-0.33
             c-1.568-0.828-3.433-0.396-5.004-1.203c-0.564-0.291-1.103,0.211-1.718,0.152c-0.774-0.072-1.455-0.486-2.28-0.398
             c-1.07,0.117-2.162,0.037-3.244-0.002c-0.472-0.019-0.822-0.451-1.373-0.369c-2.769,0.416-5.543-0.041-8.314,0.031
             c-2.031,0.053-4.057-0.445-6.084-0.053c-0.547,0.106-1.041,0.133-1.613,0.032c-1.11-0.194-2.317-0.303-3.381-0.149
             c-1.369,0.194-2.705-0.027-4.045,0.117c-0.813,0.09-1.658,0.401-2.442,0.141c-1.322-0.439-2.646-0.08-3.959-0.146
             c-1.513-0.075-3.039,0.093-4.556,0.22c-0.541,0.045-0.823-0.484-1.354-0.418c-1.857,0.231-3.719,0.299-5.594,0.207
             c-1.269-0.064-2.527,0.231-3.81,0.211c-2.811-0.052-5.625,0.024-8.436-0.033c-2.291-0.047-4.574,0.422-6.873,0.037
             c-1.027-0.17-2.18-0.215-3.115-0.063c-1.869,0.308-3.719,0.293-5.535,0.129c-2.012-0.184-3.981-0.051-5.969,0.08
             c-1.83,0.121-3.713,0.244-5.482,0.07c-1.998-0.197-3.938-0.105-5.901,0c-0.574,0.031-1.119,0.1-1.72,0.02
             c-0.879-0.118-1.85-0.387-2.655-0.204c-1.922,0.43-3.879-0.527-5.746,0.291c-2.045-0.775-4.17,0.151-6.252-0.313
             c-1.314-0.295-2.685,0.072-4.025,0.176c-1.797,0.14-3.59-0.424-5.412,0.082c-0.426,0.119-1.021,0.443-1.436,0.256
             c-1.363-0.618-2.746-0.342-4.146-0.354c-1.912-0.021-3.809,0.254-5.735,0.057c-1.438-0.147-2.91-0.106-4.396,0.06
             c-1.063,0.116-2.246-0.171-3.385,0.006c-0.025,0.004-0.059-0.047-0.088-0.047c-1.646-0.063-3.273-0.355-4.937-0.269
             c-2.36,0.125-4.731,0.26-7.088,0.156c-2.383-0.107-4.764,0.018-7.16-0.246c-2.364-0.26-4.805,0.027-7.2,0.217
             c-2.086,0.166-4.117-0.424-6.22-0.211c-1.746,0.176-3.534-0.098-5.307-0.117c-0.816-0.008-1.635,0.125-2.453,0.179
             c-1.666,0.106-3.307-0.375-4.942-0.354c-1.761,0.025-3.554,0.129-5.287,0.047c-2.091-0.102-4.179,0.104-6.263-0.092
             c-1.918-0.178-3.852-0.043-5.778-0.127c-1.195-0.051-2.492,0.07-3.668-0.018c-1.359-0.104-2.652,0.291-4.056,0.082
             c-1.463-0.22-3.073-0.209-4.645-0.06c-1.822,0.174-3.695-0.297-5.543-0.283c-1.459,0.011-2.935-0.032-4.367-0.112
             c-2.326-0.129-4.678-0.32-6.992-0.39c-1.563-0.045-3.186-0.215-4.811,0.004c-1.443,0.195-2.972,0.033-4.461,0.031
             c-0.441-0.002-0.804,0.23-1.302,0.139c-1.383-0.256-2.771-0.684-4.225-0.194c-0.402,0.135-1.055,0.039-1.375-0.222
             c-0.504-0.405-0.865-0.174-1.322-0.061c-0.828,0.207-1.731,0.553-2.512,0.205c-0.652-0.291-1.119-0.269-1.609,0.113
             c-0.45,0.348-0.858,0.371-1.325,0.065c-0.195-0.129-0.41-0.186-0.675-0.192c-1.297-0.037-2.596,0.489-3.893-0.007
             c-0.123-0.047-0.275-0.02-0.414-0.02c-2.424-0.002-4.85-0.076-7.27,0.02c-2.553,0.103-5.093-0.243-7.647-0.034
             c-1.657,0.135-3.337,0.104-5.001,0.021c-1.512-0.074-3.014,0.387-4.506,0.1c-1.79-0.344-3.535,0.22-5.31,0.111
             c-1.495-0.09-3.02-0.063-4.486,0.072c-2.258,0.205-4.521,0.129-6.771,0.352c-0.717,0.07-1.461,0.236-2.155,0.125
             c-2.285-0.373-4.561,0-6.839-0.014c-2.228-0.014-4.457,0.361-6.686,0.371c-2.121,0.01-4.208,0.365-6.327,0.406
             c-1.887,0.037-3.783,0.432-5.675,0.309c-1.565-0.1-3.071,0.229-4.604,0.334c-2.364,0.162-4.714,0.563-7.079,0.672
             c-1.711,0.078-3.401,0.285-5.088,0.517c-0.548,0.073-0.976,1.291-1.627,0.11c-0.55,0.461-1.219,0.15-1.802,0.279
             c-1.468,0.326-3.036,0.088-4.43,0.813c-0.259,0.136-0.558,0.043-0.792-0.125c-0.713-0.514-1.542-0.25-2.184-0.055
             c-0.552,0.168-1.063,0.185-1.594,0.209c-1.792,0.084-3.583-0.067-5.38,0.195c-1.688,0.246-3.365,0.598-5.083,0.662
             c-1.626,0.061-3.288,0.041-4.792,0.815c-0.698,0.359-1.298,0.494-2.118,0.177c-0.424-0.164-1.186,0.137-1.769,0.221
             c-1.418,0.201-2.67,1.18-4.321,0.522c-1.475-0.586-3.099,0.197-4.551,0.658c-1.25,0.396-2.512,0.685-3.781,0.918
             c-0.643,0.117-1.205,0.199-1.644,0.711c-0.363,0.422-0.806,0.521-1.277,0.195c-0.717-0.494-1.438-0.42-2.096,0.047
             c-0.476,0.336-0.999,0.406-1.506,0.363c-1.323-0.113-2.581-0.238-3.953,0.078c-1.597,0.369-3.319,0.184-4.698,1.338
             c-0.123,0.102-0.325,0.17-0.483,0.16c-1.13-0.08-2.209,0.94-3.373,0.155c-0.064-0.043-0.214-0.021-0.291,0.025
             c-0.996,0.613-2.221,0.576-3.244,1.244c-0.514,0.338-1.043,0.904-1.803,0.896c-0.9-0.012-1.778,0.152-2.669,0.314
             c-0.856,0.154-1.515,0.998-2.513,0.705c-0.054-0.017-1.337,0.473-0.625,1.354C164.041,451.453,163.56,451.609,163.835,451.9z
              M97.956,420.004c0.083,1.666-0.459,3.254-1.614,4.305c-2.021,1.839-4.55,2.281-7.247,1.722c-0.733-0.152-1.479-0.847-2.149-0.496
             c-1.097,0.574-1.906,0.004-2.825-0.303c-0.834-0.275-1.609-0.927-2.519-0.72c-0.556,0.127-0.805-0.096-1.023-0.434
             c-0.157-0.244-0.344-0.381-0.568-0.549c-1.515-1.136-3.391-1.715-4.559-3.422c-0.612-0.896-1.878-1.482-2.491-2.336
             c-0.919-1.281-2.139-2.283-3.007-3.65c-0.858-1.353-1.798-2.824-3.096-3.916c-0.271-0.229-0.572-0.59-0.493-0.876
             c0.323-1.161-0.547-1.633-1.176-2.257c-0.147-0.146-0.42-0.278-0.432-0.433c-0.112-1.521-1.538-1.837-2.411-2.643
             c-0.57-0.525-1.38-0.295-1.767,0.39c-0.419,0.743-0.33,1.419,0.143,2.12c0.762,1.132,1.698,2.121,2.439,3.291
             c0.655,1.033,1.479,2.049,2.281,3.002c1.327,1.578,2.569,3.215,3.671,4.933c0.548,0.854,1.022,1.717,1.762,2.428
             c0.255,0.246,0.755,0.09,0.828,0.619c0.155,1.11,1.83,1.289,1.666,2.631c-0.005,0.045,0.154,0.131,0.248,0.16
             c1.396,0.44,2.559,1.34,3.522,2.33c1.191,1.225,2.553,1.823,4.148,2.108c0.167,0.029,0.33,0.09,0.489,0.15
             c2.285,0.865,4.677,1.276,7.061,1.76c1.246,0.252,2.464,0.039,3.662,0.021c1.099-0.021,2.385,0.291,3.376-0.369
             c1.008-0.672,2.137-1.301,2.734-2.426c0.311-0.585,0.846-1.044,1.059-1.605c0.43-1.141,1.629-2.133,0.771-3.621
             c-0.182-0.313-0.076-0.977,0.224-1.49c0.346-0.592,0.761-1.258,0.347-2.032c-0.057-0.107,0.035-0.341,0.122-0.474
             c0.842-1.293,0.654-2.809,0.383-4.086c-0.454-2.145-0.548-4.309-0.379-6.402c0.239-2.945-0.144-5.812-0.539-8.67
             c-0.197-1.424,0.219-3.083-1.021-4.287c0.374-1.022-0.095-1.947-0.522-2.769c-0.52-0.999,0.259-1.952-0.169-2.922
             c-0.483-1.097-0.032-2.224,0.215-3.295c0.185-0.802,0.17-1.633-0.239-2.184c-1.348-1.815-1.595-4.008-1.758-6.039
             c-0.152-1.896-0.652-3.68-0.966-5.513c-0.352-2.052-0.478-4.138-0.914-6.163c-0.207-0.963-0.027-1.884-0.161-2.784
             c-0.14-0.938-0.453-1.782-0.424-2.817c0.038-1.386,0.233-2.789,0.068-4.216c-0.116-0.994-0.377-2.224,0.516-3.16
             c0.114-0.12,0.159-0.452,0.076-0.59c-0.558-0.925,0.03-1.903-0.175-2.839c-0.101-0.458,0.039-0.686,0.589-0.682
             c1.255,0.008,2.494-0.396,3.763-0.181c1.14,0.193,2.136-0.615,3.312-0.424c0.817,0.132,1.667,0.188,2.533,0.02
             c1.614-0.314,3.283-0.072,4.912-0.406c0.615-0.125,1.256-0.219,1.912-0.149c0.88,0.093,1.802,0.26,2.647,0.095
             c1.322-0.258,2.661-0.094,3.994-0.412c1.124-0.268,2.372-0.001,3.564,0.002c0.863,0.003,1.637-0.653,2.491-0.495
             c2.043,0.379,4.102,0.052,6.141,0.088c1.457,0.025,2.928,0.304,4.428,0.082c1.663-0.246,3.378,0.097,5.048,0.245
             c1.157,0.103,2.391-0.187,3.552,0.446c0.464,0.253,1.354,0.023,1.673-0.66c0.263-0.561-0.453-2.082-0.951-2.242
             c-1.804-0.582-3.687-0.707-5.549-0.963c-0.986-0.135-1.914-0.087-2.903,0.088c-1.103,0.196-2.23,0.312-3.407-0.212
             c-0.98-0.437-2.166-0.437-3.308-0.233c-1.554,0.278-3.192,0.36-4.711,0.339c-1.9-0.027-3.82-0.109-5.729-0.049
             c-1.406,0.044-2.835,0.491-4.207,0.337c-3.343-0.374-6.628,0.176-9.934,0.356c-0.716,0.039-1.398-0.264-2.128-0.02
             c-0.86,0.288-1.741,0.39-2.682,0.437c-1.833,0.092-3.616,0.937-5.515,0.409c-1.056,0.868-2.409,0.386-3.564,0.782
             c-0.826,0.283-1.587,1.115-2.508,0.213c-1.705,0.391-3.417-0.231-5.146,0.102c-2.208,0.425-4.483,0.3-6.709,0.562
             c-1.019,0.12-2.287-0.223-3.047,0.918c-0.052,0.078-0.297,0.118-0.389,0.065c-0.7-0.401-1.336,0-1.995,0.122
             c-0.2,0.037-0.483,0.127-0.601,0.034c-0.888-0.711-1.785-0.146-2.676-0.064c-0.204,0.019-0.422,0.128-0.605,0.083
             c-1.204-0.298-2.288-0.009-3.301,0.086c-0.987,0.093-1.822,0.754-2.958,0.447c-1.116-0.302-2.335-0.412-3.563-0.318
             c-1.03,0.079-2.058,0.241-3.095,0.258c-0.561,0.01-1.125-0.446-1.627-0.184c-1.025,0.534-2.264-0.001-3.231,0.737
             c-0.222,0.169-0.525-0.045-0.657-0.19c-0.716-0.787-1.706-0.65-2.48-0.472c-0.657,0.151-1.294,0.192-1.855,0.047
             c-1.054-0.273-2.162,0.437-3.036-0.006c-1.008-0.511-1.944-0.122-2.83-0.284c-1.465-0.27-2.476,0.522-3.617,0.961
             c-0.559,0.215-1.393,0.503-1.426,1.459c-0.018,0.507,0.248,1.217-0.594,1.424c-0.022,0.006-0.029,0.271,0.028,0.375
             c0.42,0.762,1.947,1.148,2.785,0.836c1.02-0.382,2.022-1.09,3.207-0.422c0.116,0.065,0.466-0.059,0.549-0.192
             c0.552-0.893,1.543,0.221,2.132-0.485c0.046-0.056,0.226,0.104,0.246,0.264c0.054,0.423,0.37,0.251,0.558,0.196
             c0.562-0.166,1.152,0.054,1.616,0.008c0.903-0.088,1.843,0.443,2.632,0.019c1.855-0.996,3.975-0.118,5.828-0.949
             c0.029-0.013,0.072-0.009,0.103,0.003c1.556,0.551,3.175,0.123,4.758,0.295c0.388,0.043,0.695,0.263,1.161,0.212
             c1.033-0.112,2.086-0.095,3.132-0.193c1.05-0.1,2.141,0.052,3.157-0.168c1.187-0.257,2.31-0.831,3.504-0.08
             c0.239,0.15,0.364-0.105,0.541-0.188c0.211-0.098,0.504-0.271,0.659-0.195c1.018,0.488,2.065-0.021,2.889-0.272
             c0.924-0.283,2.033,0.89,2.706-0.406c0.732,0.497,1.42,0.025,2.136-0.072c1.648-0.227,3.36,0.007,4.94-0.704
             c0.265-0.119,0.549-0.129,0.816-0.039c1.177,0.396,2.371,0.042,3.548,0.03c1.401-0.014,2.797-0.359,4.2-0.511
             c0.764-0.083,1.488-0.048,1.429,1.081c-0.017,0.33-0.014,0.617-0.101,0.959c-0.26,1.025-0.459,2.067-0.312,3.161
             c0.176,1.314,0.422,2.67,0.274,3.967c-0.239,2.102-0.022,4.188,0.211,6.225c0.228,1.98,0.606,3.954,0.706,5.958
             c0.019,0.391,0.147,0.7,0.319,1.054c0.388,0.794,0.6,1.688,0.539,2.568c-0.077,1.128,0.105,2.238,0.413,3.263
             c0.379,1.263,0.438,2.563,0.728,3.831c0.201,0.879-0.04,1.854,0.752,2.561c0.143,0.127,0.191,0.295,0.122,0.471
             c-0.604,1.53-0.037,3.027,0.277,4.475c0.213,0.98,0.34,1.987,0.322,2.925c-0.028,1.388,0.354,2.636,0.677,3.923
             c0.118,0.469,0.189,0.939,0.274,1.411c0.233,1.29,0.045,2.589,0.189,3.872c0.098,0.874,0.421,1.699,0.468,2.606
             c0.027,0.521-0.416,0.877-0.176,1.457c0.554,1.34,0.226,2.819,0.457,4.232c0.16,0.978-0.01,2.021-0.009,3.034
             c0.002,1.303,0.135,2.621-0.065,3.948C98.28,417.408,97.885,418.676,97.956,420.004z M343.128,361.064
             c-0.924-0.337-0.973-0.785-0.397-1.383c0.163-0.172,0.34-0.368,0.415-0.587c0.314-0.921,1.273-1.54,0.966-2.811
             c-0.125-0.518-0.064-1.363,0.104-2.043c0.064-0.262,0.203-0.468,0.465-0.49c0.357-0.032,0.252,0.323,0.367,0.5
             c0.342,0.518-0.066,1.045,0.127,1.596c0.433,1.226,0.506,2.546,0.785,3.818c0.627,2.854,0.367,5.87,1.521,8.642
             c0.073,0.178,0.018,0.412,0.012,0.619c-0.049,1.604-0.004,3.19,0.709,4.682c0.32,0.673,0.41,1.587,0.354,2.127
             c-0.08,0.782,0.136,1.435,0.375,1.998c0.228,0.53,0.355,1.041,0.507,1.583c0.163,0.589-0.08,1.52,1.012,1.623
             c0.278,0.026,0.271,0.621,0.02,0.634c-0.649,0.031-0.389,0.369-0.465,0.735c-0.406,1.965,0.57,3.294,1.844,4.566
             c0.312,0.31,0.56,0.538,0.959,0.368c0.425-0.181,0.576-0.598,0.586-1.027c0.013-0.48-0.047-0.95-0.172-1.432
             c-0.215-0.814-0.385-1.678-0.66-2.438c-0.313-0.864-0.077-1.739-0.403-2.547c-0.265-0.65-0.783-1.241-0.25-2.023
             c0.158-0.231-0.094-0.579-0.191-0.875c-0.151-0.475-0.59-0.839-0.549-1.377c0.133-1.687-0.604-3.239-0.754-4.893
             c-0.086-0.97-0.623-1.905-0.543-2.924c0.145-1.809-0.523-3.527-0.506-5.333c0.02-2.126-1.441-4.063-0.771-6.338
             c0.295-0.992-0.264-2.088-0.211-3.163c0.047-0.986-1.151-1.824-0.385-2.927c0.027-0.039-0.053-0.209-0.121-0.248
             c-0.92-0.52-0.709-1.342-0.465-2.068c0.598-1.772,0.365-3.441-0.426-5.081c-0.226-0.465-0.445-1.073-1.047-0.934
             c-0.695,0.16-1.539,0.287-1.568,1.345c-0.037,1.281,0.092,2.631-0.277,3.82c-0.432,1.395-0.813,2.794-1.076,4.22
             c-0.268,1.455-1.03,2.753-1.258,4.199c-0.186,1.184-0.59,2.262-1.135,3.311c-0.096,0.188-0.354,0.366-0.146,0.649
             c0.361,0.49,0.101,0.873-0.188,1.298c-0.285,0.421-0.502,0.903-0.75,1.34c-0.672,1.183-0.975,2.503-1.584,3.708
             c-0.715,1.414-1.752,2.618-2.486,3.98c-0.762,1.408-2.319,1.354-3.287,2.293c-0.118,0.116-0.87-0.062-1.098-0.563
             c-0.111-0.249-0.211-0.58-0.494-0.635c-1.26-0.244-1.244-1.565-1.481-2.274c-0.55-1.631-0.879-3.351-1.56-4.961
             c-0.983-2.327-1.233-4.831-1.658-7.284c-0.096-0.559-0.485-0.98-0.456-1.563c0.114-2.293-0.476-4.442-1.396-6.518
             c-0.139-0.312-0.336-0.607-0.229-0.988c0.303-1.099-0.119-2.163-0.218-3.237c-0.123-1.364-0.395-2.718-0.664-4.063
             c-0.233-1.166-0.334-2.409-1.364-3.248c-0.382-0.311-0.802-0.605-1.305-0.378c-0.333,0.15-0.661,0.393-0.626,0.864
             c0.163,2.17,0.684,4.303,0.699,6.486c0.01,1.196,0.498,2.329,0.306,3.565c-0.151,0.975,0.217,2.04,0.079,2.967
             c-0.214,1.443-0.146,2.917,0.205,4.182c0.474,1.695,0.394,3.397,0.396,5.026c0.004,1.766,0.514,3.458,0.393,5.229
             c-0.067,1.01-0.039,2.14,0.248,3.097c0.563,1.873,0.271,3.775,0.441,5.649c0.137,1.51,0.545,2.992,0.381,4.589
             c-0.199,1.961,0.238,3.971,0.358,5.963c0.101,1.642,0.433,3.331,2.123,4.289c0.402,0.227,0.729,0.276,1.033-0.003
             c0.398-0.365,0.082-0.673-0.166-0.978c-0.27-0.331-0.94-0.651-0.615-1.061c0.349-0.437,0.031-0.6-0.102-0.777
             c-0.703-0.941-0.727-1.869-0.166-2.895c0.307-0.561,0.428-1.143,0.057-1.826c-0.34-0.626-0.42-1.388,0.103-2.057
             c0.271-0.348,0.127-0.771,0.172-1.15c0.104-0.85-0.57-1.563-0.264-2.412c0.256-0.701,0.252-1.437-0.025-2.137
             c-0.645-1.636-0.209-3.411-0.67-5.07c-0.045-0.16,0.008-0.346,0.008-0.52c0.002-0.27,0.104-0.498,0.371-0.56
             c0.338-0.079,0.48,0.152,0.59,0.441c0.316,0.838,0.638,1.67,0.9,2.529c0.268,0.872,0.598,1.784,1.756,1.872
             c-0.021,0.398-0.562,0.666-0.266,1.062c0.77,1.025,1.717,2.005,2.819,2.5c1.484,0.666,3.039-0.321,4.234-1.017
             c0.809-0.47,1.676-1.112,2.481-1.724c0.681-0.515,1.562-1.106,0.771-2.198c-0.221-0.304-0.09-0.574,0.158-0.708
             c0.758-0.409,1.108-0.988,1.006-1.862c-0.019-0.16,0.149-0.389,0.293-0.516c0.805-0.707,0.76-1.906,1.57-2.624
             c0.409-0.365-0.041-0.846-0.029-1.275c0.008-0.257-0.359-0.612-0.006-0.745C341.983,361.999,342.095,360.943,343.128,361.064z
              M221.998,397.097c0.238,0.82,0.896,1.136,1.5,0.75c1.509-0.962,3.333-1.461,4.455-3.019c0.42-0.584,1.119-0.637,1.743-0.349
             c0.643,0.296,0.976,0.872,0.931,1.596c-0.027,0.442-0.108,0.889-0.213,1.321c-0.175,0.718,0.066,1.367,0.697,1.563
             c1.45,0.447,2.257,0.166,2.559-0.699c0.168-0.479,0.127-1.053-0.298-1.291c-0.745-0.418-0.574-1.063-0.58-1.657
             c-0.02-1.951,0.173-3.923-0.04-5.851c-0.243-2.19-0.888-4.33-1.298-6.506c-0.154-0.813,0.048-2.389-1.662-2.285
             c-0.024,0.001-0.051-0.119-0.084-0.178c-0.643-1.129-1.257-2.273-2.2-3.202c-0.647-0.638-1.837-0.833-2.586-0.343
             c-0.266,0.174-0.527,0.278-0.848,0.339c-2.104,0.393-4.198,0.834-6.3,1.235c-0.75,0.144-1.375,0.49-1.81,1.095
             c-0.353,0.49,0.174,0.889,0.282,1.331c0.425,1.746,0.66,1.731,2.412,1.432c2.024-0.346,3.972-0.992,5.995-1.319
             c0.924-0.149,1.672-0.166,1.971,0.999c0.106,0.412,0.453,0.841,0.92,1.082c0.779,0.402,0.769,1.341,1.25,1.958
             c0.13,0.168,0.024,0.455-0.316,0.52c-1.613,0.307-3.132,1.012-4.719,1.326c-2.18,0.433-4.194,1.274-6.244,2.028
             c-1.543,0.567-2.874,1.462-3.906,2.87c-0.589,0.805-0.867,1.767-1.561,2.517c-0.337,0.366-0.341,1.176,0.146,1.626
             c0.367,0.338,0.679,0.771,1.038,1.035c0.708,0.521,1.504,1.313,2.467,0.952c0.844-0.315,1.45-0.074,2.134,0.274
             c0.571,0.29,1.301,0.533,1.709-0.04c0.508-0.716,0.68-0.496,0.941,0.093c0.178,0.399,0.499,0.299,0.799,0.206
             c0.332-0.104,0.204-0.26,0.111-0.515C221.232,397.543,221.629,397.344,221.998,397.097z M408.708,370.031
             c0.053-0.552,0.107-1.096,0.354-1.593c0.186-0.378,0.434-0.743-0.011-1.115c-0.367-0.308-0.653-0.562-1.258-0.35
             c-0.498,0.176-0.885,0.567-1.393,0.646c-2.3,0.359-4.416,1.251-6.509,2.204c-0.741,0.338-0.797-0.467-1.215-0.668
             c-0.424-0.205-0.018-0.408,0.152-0.605c0.754-0.88,0.783-1.763,0.086-2.736c-0.111-0.156-0.264-0.206,0.029-0.337
             c0.612-0.277,0.567-0.736,0.201-1.175c-0.371-0.442-0.365-0.835-0.058-1.308c0.92-1.406,0.76-2.615-0.414-3.91
             c-0.299-0.328-0.906-0.896,0.226-0.968c0.186-0.012,0.36-0.091,0.383-0.287c0.133-1.151,0.709-2.29,0.303-3.454
             c-0.252-0.723-0.223-1.208,0.416-1.691c0.502-0.379,0.402-1.73-0.094-2.113c-0.713-0.548-0.98-1.157-0.562-2.06
             c0.396-0.846-0.35-2.219-1.207-2.395c-0.08-0.017-0.194,0.047-0.271,0.103c-0.402,0.292-0.414,1.919-0.053,2.299
             c0.553,0.583,0.526,1.417,0.127,1.881c-0.513,0.596-0.41,1.128-0.31,1.717c0.054,0.302,0.138,0.573,0.111,0.901
             c-0.09,1.122-0.101,2.258-0.396,3.348c-0.364,1.355,0.041,2.798-0.526,4.129c-0.113,0.269-0.086,0.618-0.062,0.925
             c0.146,1.72-0.129,3.415-0.301,5.114c-0.02,0.195-0.088,0.348-0.027,0.575c0.246,0.929-0.049,1.825-0.309,2.703
             c-0.225,0.763-0.543,1.487,0.244,2.135c0.324,0.268,0.076,0.499-0.158,0.663c-1.047,0.733-1.695,2.504-1.33,3.643
             c0.055,0.169,0.185,0.185,0.318,0.214c0.717,0.15,0.93,0.819,1.014,1.329c0.209,1.285,0.502,2.575,0.168,3.915
             c-0.154,0.614-0.106,1.322,0.021,1.954c0.352,1.746,0.303,3.587,1.184,5.215c0.043,0.081,0.018,0.206,0.008,0.309
             c-0.021,0.206-0.086,0.445,0.166,0.535c0.26,0.093,0.508-0.065,0.627-0.262c0.443-0.741,0.877-1.556,0.619-2.413
             c-0.158-0.527-0.121-0.907,0.18-1.298c-0.342-0.245-0.846-0.113-0.938-0.627c-0.103-0.56,0.492-0.399,0.6-0.585
             c0.168-0.294,1.045-0.69,0.045-1.14c-0.623-0.279-0.559-0.995-0.389-1.48c0.148-0.423,0.217-0.773,0.201-1.229
             c-0.049-1.385,0.738-1.889,1.926-1.29c0.402,0.203,0.768,0.146,1.191,0.105c0.903-0.089,1.811-0.436,2.696,0.309
             c1.017,0.853,2.162,1.549,3.604,0.856c0.188-0.091,0.481-0.071,0.69,0.11c0.701,0.608,1.656,0.423,2.419,0.75
             c1.096,0.472,1.479-0.186,1.719-0.933c0.182-0.57,0.854-0.957,0.625-1.671c-0.271-0.835-2.363-2.007-3.222-1.794
             c-1.282,0.318-2.547,1.028-3.877,0.146c-0.047-0.032-0.172,0.026-0.2-0.008c-0.892-1.084-2.693,0.992-3.334-0.958
             c-0.003-0.01-0.07-0.012-0.101,0.002c-0.715,0.353-1.313-0.296-2.063-0.219c-0.728,0.076-1.595-0.253-1.793-1.291
             c-0.195-1.012,0.219-2.391,0.856-2.811c1.402-0.924,3.203-0.611,4.604-1.526c0.313-0.204,0.676,0.467,0.805,0.178
             c0.479-1.079,1.262-0.457,1.938-0.457c0.302,0,0.662,0.116,0.834-0.249C408.435,369.067,408.388,370.169,408.708,370.031z
              M269.557,378.623c-1.159-0.423-1.504-1.37-1.799-2.34c-0.225-0.743-1.234-1.274-1.681-0.78c-0.533,0.589-1.131,0.661-1.829,0.638
             c-1.296-0.045-2.561,0.278-3.853,0.358c-1.381,0.085-2.438,1.206-3.744,1.69c-0.857,0.318-1.59,1.019-2.521,1.391
             c-0.845,0.339-1.563,0.736-2.466,0.275c-0.084-0.188,0.15-0.265,0.19-0.412c0.105-0.392-0.64-2.337-0.98-2.643
             c-0.147-0.133-0.139-0.291-0.057-0.47c0.211-0.459,0.372-1.102-0.269-1.129c-0.494-0.021-1.368,0.078-1.204,1.132
             c0.068,0.434-0.148,0.942-0.331,1.377c-0.269,0.642-0.369,1.311-0.102,1.916c0.566,1.286,0.135,2.395-0.498,3.462
             c-0.372,0.628-0.399,1.099,0.144,1.643c0.41,0.411,0.667,1,1.404,0.819c0.111,0.621-0.523,1.118-0.29,1.762
             c0.059,0.161,0.105,0.331,0.128,0.501c0.219,1.6,1.32,2.927,1.384,4.59c0.018,0.451,0.562,0.903,0.98,0.683
             c0.571-0.3,0.771,0.255,1.209,0.343c0.129-0.822,0.517-1.558-0.079-2.316c-0.128-0.163-0.225-0.594,0.207-0.657
             c1.125-0.165,0.776-0.935,0.515-1.47c-0.289-0.592-0.556-1.215-1.023-1.735c-0.258-0.287-0.566-0.612-0.516-1.173
             c0.135-1.495,0.829-2.295,2.405-2.519c1.332-0.189,1.647-0.5,1.712-1.817c0.02-0.392,0.243-0.727,0.506-0.611
             c0.651,0.285,1.286-0.033,1.915,0.107c0.778,0.174,1.311-0.188,1.524-0.896c0.174-0.576,0.483-0.694,1.038-0.756
             c1.23-0.136,2.473,0.314,3.692-0.107c0.086-0.03,0.292,0.072,0.335,0.164c0.445,0.94,1.999,1.19,1.645,2.639
             c-0.03,0.122,0.172,0.289,0.239,0.447c0.461,1.096,1.137,2.16,1.315,3.301c0.207,1.325,0.682,2.562,0.921,3.863
             c0.085,0.462,0.409,0.818,0.563,1.274c0.395,1.173,0.695,2.456,1.705,3.322c1.518,1.302,3.369,1.889,4.867,0.324
             c0.52-0.543,0.49-1.221,0.406-1.728c-0.079-0.474-0.693,0.072-1.083,0.046c-0.199-0.014-0.426,0.144-0.604,0.094
             c-0.633-0.179-1.501-0.229-1.824-0.664c-0.865-1.169-0.747-2.853-1.868-3.95c-0.129-0.126-0.064-0.356,0.069-0.475
             c0.535-0.475,0.298-1.013,0.043-1.454c-0.775-1.346-0.668-2.883-0.965-4.323c-0.276-1.338-0.833-2.335-2.101-3.002
             C269.137,379.119,269.33,378.892,269.557,378.623z M359.433,371.989c0.486,0.907-0.319,1.028-0.674,1.402
             c-0.235,0.249-0.877,0.007-0.832,0.587c0.033,0.458,0.558,0.248,0.834,0.425c0.455,0.288,0.826,0.526,0.623,1.089
             c-0.194,0.546-0.696,0.211-1.063,0.286c-0.732,0.151-1.658-0.219-2.174,0.37c-0.566,0.648-1.076,1.458-1.144,2.376
             c-0.031,0.449-0.012,1.015,0.551,1.243c0.236,0.096,0.299,0.242,0.322,0.467c0.123,1.232,1.664,1.216,2.002,2.264
             c0.891-0.178,1.59,0.594,2.498,0.469c0.717-0.099,1.43,0.144,2.119,0.371c1.49,0.491,3.01,0.458,4.553,0.323
             c0.771-0.067,1.521-0.573,2.312-0.192c1.299,0.626,1.952,0.419,2.577-0.88c0.375,0.303,0.585,0.785,1.063,0.955
             c0.076,0.027,0.256-0.012,0.256-0.022c0.012-0.729,0.543-0.765,1.063-0.793c0.637-0.035,0.053,0.627,0.362,0.778
             c1.068-0.811,1.752-2.254,3.488-1.565c0.412,0.164,0.867-0.299,0.902-0.835c0.026-0.426-0.154-1.079-0.584-0.889
             c-0.824,0.366-1.636,0.207-2.412,0.164c-1.291-0.071-2.658,0.762-3.885-0.281c-0.218-0.184-0.484-0.1-0.771,0.032
             c-0.67,0.308-1.361,0.496-2.141,0.462c-1.443-0.065-2.898-0.081-4.336,0.036c-0.685,0.056-1.265,0.213-1.697-0.476
             c-0.119-0.191-0.445-0.281-0.541-0.132c-0.453,0.706-0.82,0.126-1.195-0.048c-0.5-0.233-0.953-0.545-1.401-0.876
             c-1.474-1.082-1.521-1.668-0.138-2.824c0.754-0.631,0.854-1.426,0.154-1.914c-0.424-0.294-0.178-0.606-0.209-0.911
             c-0.064-0.615,0.742-0.315,0.867-0.817c0.051-0.206,0.43-0.364,0.713-0.278c0.303,0.091,0.219,0.397,0.223,0.627
             c0.015,0.469,0.16,0.732,0.594,0.324c0.771-0.725,1.289-0.334,1.925,0.249c0.803,0.735,1.801,1.321,2.869,1.422
             c1.262,0.12,2.442-0.956,3.809-0.426c0.109,0.043,0.322-0.23,0.506-0.32c0.639-0.317,1.16-1.121,1.676-1.195
             c1.392-0.202,2.57-0.609,3.658-1.518c0.777-0.647,1.055-1.269,0.502-2.149c-0.238-0.383-0.396-0.762-0.195-1.162
             c0.171-0.335-0.022-0.487-0.163-0.728c-0.355-0.611-0.98-0.745-1.554-0.78c-1.205-0.072-2.594-0.67-3.354,0.968
             c-0.16,0.347-0.59,0.29-0.916,0.056c-0.203-0.146-0.416-0.306-0.646,0.144c0.558-0.033,0.646,0.685,1.158,0.654
             c0.826-0.048,0.484,0.697,0.721,1.035c0.197,0.28-0.09,0.586-0.379,0.85c-0.881,0.809-2.178,0.724-3.043,1.453
             c-0.58,0.487-0.83,0.169-1.143-0.193c-0.152-0.179-0.258-0.409-0.351-0.631c-0.233-0.575-1.028-0.173-1.313-0.771
             c-0.053-0.109-0.521,0.319-0.629,0.664c-0.105,0.335-0.312,0.297-0.568,0.182c-0.754-0.337-0.84-1.033-0.16-1.513
             c1.101-0.775,2.238-1.004,3.474,0.001c-0.109-0.295-0.177-0.418-0.199-0.549c-0.223-1.289-0.353-1.404-1.48-0.949
             c-0.885,0.356-1.762,0.767-2.569,1.267c-1.287,0.795-2.888,1.19-3.568,2.794C360.108,372.781,359.884,372.079,359.433,371.989z
              M167.71,406.823c-0.016,0.856,0.022,1.735,0.466,2.46c0.362,0.59,0.854,1.188,1.757,0.926c0.984-0.291,0.873-1.057,0.679-1.724
             c-0.159-0.55-0.045-1.08-0.141-1.618c-0.427-2.41-0.637-4.842-0.704-7.292c-0.026-0.942-0.03-1.896-0.125-2.847
             c-0.105-1.044-0.57-2.069-0.27-3.153c0.258-0.932,0.114-1.837-0.065-2.785c-0.322-1.695-1.155-3.366-0.375-5.177
             c0.167-0.388,0.268-1.078-0.514-1.245c-0.266-0.057-0.321-0.276-0.209-0.482c0.809-1.496,0.371-3.184,0.737-4.749
             c0.184-0.783,0.325-1.563,0.186-2.407c-0.23-1.398,0.032-2.812,0.149-4.214c0.091-1.096,0.238-2.188,0.082-3.285
             c-0.115-0.805-0.662-1.628,0.195-2.358c0.073-0.063,0.061-0.276,0.027-0.403c-0.385-1.477,0.049-2.974-0.118-4.438
             c-0.065-0.571-0.146-1.142-0.054-1.683c0.226-1.335,0.025-2.599-0.303-3.892c-0.154-0.607-0.599-1.034-0.731-1.573
             c-0.155-0.634-0.599-0.9-1.017-0.755c-0.434,0.151-0.886,0.695-0.687,1.239c0.483,1.326,0.487,2.651,0.458,4.042
             c-0.021,0.967-0.363,1.91-0.194,2.864c0.184,1.045-0.453,1.999-0.307,2.999c0.182,1.236-0.332,2.389-0.296,3.616
             c0.016,0.531,0.352,1.069,0.227,1.411c-0.423,1.147-0.1,2.296-0.053,3.391c0.089,2.093-0.336,4.189,0.019,6.253
             c0.156,0.912-0.525,1.652-0.286,2.483c0.458,1.585-0.324,3.197,0.165,4.772c0.038,0.12-0.063,0.278-0.039,0.408
             c0.142,0.767-0.398,1.421-0.353,2.162c0.062,1-0.027,2.062,0.292,2.978c0.289,0.827-0.204,1.453-0.14,2.209
             c0.09,1.068,0.389,2.113,0.268,3.224c-0.11,1.015,0.498,2.05,0.024,3.095c-0.021,0.046,0.026,0.135,0.062,0.191
             C167.552,403.116,166.994,405.106,167.71,406.823z M146.862,393.691c-0.046-1.276-0.301-2.368-0.736-3.427
             c-0.159-0.388-0.431-0.513-0.797-0.541c-0.154-0.012-0.322,0.068-0.288,0.216c0.277,1.217-0.16,2.389-0.196,3.569
             c-0.069,2.298-1.01,4.173-2.456,5.782c-0.326,0.363-0.72,1.004-1.309,1.096c-0.535,0.083-0.916,0.225-1.106,0.75
             c-0.042,0.116-0.093,0.313-0.274,0.246c-1.01-0.372-2.085-0.181-3.135-0.396c-1.542-0.319-2.687-1.547-4.285-1.624
             c-0.273-0.015-0.341-0.346-0.407-0.56c-0.31-1.011-0.818-1.853-1.691-2.501c-0.458-0.34-0.903-0.823-0.98-1.416
             c-0.205-1.582-0.558-3.156-0.298-4.775c0.099-0.615,0.561-1.125,0.453-1.791c-0.103-0.633,0.155-1.004,0.769-1.276
             c0.647-0.288,1.433-0.621,1.766-1.171c0.496-0.818,0.383-1.904,0.07-2.785c-0.194-0.546-1.001-0.729-1.593-0.933
             c-0.449-0.154-0.817,0.012-0.762,0.595c0.04,0.421,0.004,0.893-0.293,1.139c-1.38,1.146-2.316,2.462-2.613,4.326
             c-0.395,2.479-1.001,4.886-0.156,7.41c0.471,1.408,0.881,2.853,1.241,4.295c0.141,0.566,0.387,0.813,0.837,1.042
             c0.303,0.154,0.581,0.38,0.828,0.618c1.059,1.019,2.292,1.815,3.621,2.366c2.309,0.956,4.808,1.074,7.269,1.25
             c0.438,0.031,0.941-0.184,1.336-0.636c0.612-0.701,1.111-1.473,1.679-2.192c0.496-0.628,1.353-0.821,1.822-1.669
             c0.5-0.902,0.83-1.856,1.256-2.774c0.272-0.589,0.73-1.605,0.513-1.813c-0.839-0.804,0.025-1.449-0.037-2.14
             C146.896,393.833,146.863,393.697,146.862,393.691z M432.196,388.461c0.346-0.199,0.481-0.411,0.422-0.597
             c-0.351-1.041,0.188-2.214-0.49-3.205c-0.102-0.146-0.049-0.356,0.107-0.467c0.76-0.533,0.412-1.161,0.084-1.7
             c-0.392-0.645-0.535-1.384-0.949-2.031c-0.361-0.563-0.256-1.347-0.678-2c-0.183-0.284,0.416-0.865,0.217-1.624
             c-0.301-1.147,0.33-2.423-0.049-3.706c-0.228-0.764-0.175-1.677,0.004-2.467c0.104-0.477-0.631-0.452-0.293-0.927
             c0.951-1.339,0.668-2.986,0.448-4.333c-0.387-2.372-0.413-4.632,0.13-6.951c0.223-0.957,0.465-2.006,0.284-2.933
             c-0.155-0.795-0.241-1.49-0.026-2.262c0.246-0.892,0.649-1.804,0.42-2.729c-0.295-1.186-0.107-2.285,0.186-3.425
             c0.129-0.502,0.211-1.206-0.041-1.573c-0.379-0.55-1.131-0.5-1.709-0.152c-0.547,0.329-1.104,0.896-0.819,1.502
             c0.252,0.538-0.019,1.039,0.178,1.538c0.031,0.08,0.195,0.89-0.396,0.842c-0.627-0.051-0.229,0.414-0.391,0.573
             c0.951,0.895,0.439,1.642-0.225,2.395c-0.226,0.254-0.222,0.584-0.021,0.863c0.273,0.381,0.637,0.104,0.955,0.077
             c0.229-0.02,0.094-0.513,0.521-0.417c0.102,0.244,0.086,0.482-0.033,0.761c-0.517,1.19-1.248,2.301-1.359,3.644
             c-0.021,0.261-0.188,0.452-0.453,0.507c-0.305,0.063-0.383,0.271-0.379,0.535c0.021,1.31-0.18,2.675,0.904,3.728
             c-1.109,0.383-1.25,0.919-0.486,1.844c0.318,0.384,0.402,1.048-0.012,1.088c-0.525,0.052-0.482,0.143-0.213,0.377
             c0.684,0.598,0.529,1.226,0.18,1.893c-0.11,0.213-0.33,0.421-0.33,0.631c0,1.703-0.041,3.414,0.095,5.108
             c0.118,1.496,0.54,2.914,0.307,4.498c-0.226,1.512-0.016,3.157,0.547,4.65c0.186,0.494,0.461,0.972,0.262,1.456
             c-0.326,0.786-0.291,1.516-0.043,2.307c0.166,0.526,0.238,0.996,0.979,0.803c0.295-0.077,0.813,0.085,0.69,0.36
             c-0.535,1.236,0.611,0.799,0.836,0.731C432.345,387.435,432.265,387.879,432.196,388.461z M485.136,378.257
             c-0.059,1.261,0.381,1.962,1.16,2.45c0.33,0.207,0.758,0.34,0.961-0.168c0.346-0.864,1.244-1.574,0.896-2.638
             c-0.295-0.9-0.767-1.756-1.226-2.565c-0.496-0.872-1.438-1.506-0.471-2.604c0.162-0.184-0.105-0.291-0.193-0.421
             c-0.108-0.165-0.426-0.329-0.301-0.487c0.529-0.663-0.094-0.909-0.408-1.255c-0.657-0.726-0.567-1.155,0.408-1.373
             c0.508-0.113,0.795-0.368,1.025-0.773c0.112-0.199,0.151-0.539,0.471-0.453c0.463,0.124,0.145,0.428,0.096,0.664
             c-0.039,0.183-0.018,0.396,0.154,0.455c0.74,0.254,1.49,0.66,2.238,0.66c1.032,0,1.985-0.689,3.08-0.601
             c0.178,0.014,0.282-0.137,0.354-0.32c0.324-0.842,1.027-0.908,1.627-0.505c1.062,0.716,2.148,0.901,3.283,0.4
             c0.758-0.335,1.539,0.176,2.225-0.17c0.738-0.373,1.498-0.367,2.281-0.459c0.959-0.113,2.068,0.091,2.783-0.896
             c0.137-0.189,0.43-0.148,0.666,0.004c0.832,0.537,2.771,0.316,3.41-0.37c0.229-0.245,0.231-0.454,0.012-0.724
             c-0.4-0.485-2.387-1.142-3.076-0.981c-0.227,0.053-0.416,0.041-0.469-0.241c-0.139-0.726-0.633-0.504-1.121-0.478
             c-0.646,0.033-1.066,0.618-1.576,0.682c-0.848,0.104-1.795-0.83-2.578,0.268c-0.028,0.041-0.305-0.088-0.463-0.146
             c-0.871-0.324-1.678-0.402-2.235,0.554c-0.185,0.315-0.429,0.392-0.582,0.006c-0.091-0.222-0.166-0.327-0.408-0.379
             c-1.709-0.364-3.412,0.366-5.119,0.03c-0.051-0.011-0.15,0.111-0.193,0.19c-0.379,0.689-1.055,0.687-1.646,0.558
             c-2.041-0.444-4.072-1.123-6.111-0.101c-0.406,0.203-0.647-0.251-1.156,0.056c-0.938,0.566-1.239,1.319-1.569,2.253
             c-0.313,0.884-0.078,1.052,0.715,1c0.606-0.04,1.272,0.159,1.221,0.798c-0.092,1.111,0.439,1.984,0.775,2.938
             c0.354,1.001,0.646,2.095,0.139,3.02c-0.25,0.454-0.266,0.554,0.094,0.71C485.099,377.188,485.073,377.887,485.136,378.257z
              M462.452,376.921c-1.072-0.077-2.16-0.52-3.18,0.128c-0.074,0.046-0.205-0.011-0.31-0.002c-1.063,0.089-2.166-0.269-3.182,0.492
             c-0.361,0.272-1.201,0.607-1.402-0.42c-0.018-0.086-0.152-0.229-0.174-0.22c-0.953,0.438-1.801-0.497-2.705-0.227
             c-0.865,0.259-1.611,0.084-2.33-0.369c-0.248-0.155-0.74-0.112-0.537-0.683c0.168-0.466,0.383-0.885,0.916-0.761
             c0.416,0.098,0.728-0.097,1.082-0.13c0.668-0.063,1.312-0.284,1.963-0.322c1.207-0.072,2.435-0.079,3.574-0.467
             c1.047-0.355,2.059-0.802,3.187-0.873c-0.281-1.036-0.142-1.972,0.5-2.736c0.51-0.606,0.459-1.255,0.229-1.841
             c-0.223-0.572-0.699-0.869-1.463-0.858c-0.787,0.013-1.32,0.815-1.982,0.631c-1.194-0.334-1.557,1.361-2.694,0.951
             c-0.027,0.131-0.023,0.283-0.093,0.387c-0.09,0.133-0.268,0.342-0.356,0.319c-0.894-0.224-1.467,0.494-2.203,0.714
             c-0.871,0.26-1.646,0.854-2.674,0.455c-0.547-0.212-1.117,0.489-0.99,1.104c0.068,0.33-0.094,0.523-0.236,0.807
             c-0.6,1.18-1.68,2.013-2.209,3.236c-0.264,0.605-0.194,1.104-0.102,1.748c0.113,0.774,0.438,0.964,1.01,1.214
             c0.785,0.344,1.492,0.56,2.431,0.52c1.104-0.048,2.207,0.259,3.272-0.303c0.107-0.056,0.328,0.065,0.476,0.144
             c0.161,0.085,0.342,0.196,0.446-0.003c0.494-0.921,1.185-0.942,2.063-0.574c1.19,0.499,2.436-0.071,3.672,0.047
             c0.602,0.058,1.625-0.409,1.834-0.902C460.745,377.032,461.419,376.801,462.452,376.921z M194.563,385.564
             c-0.184,0.653-1.463,0.955-0.399,1.784c0.035,0.028-0.009,0.202-0.056,0.285c-0.41,0.72-0.695,1.389-0.419,2.308
             c0.22,0.733,0.187,1.627-0.004,2.382c-0.374,1.475-0.479,2.878,0.256,4.26c0.075,0.142,0.212,0.235,0.106,0.452
             c-0.919,1.882-0.487,3.693,0.327,5.476c0.351,0.768,1.246,0.869,1.845,0.247c0.667-0.693,0.823-1.516,0.76-2.449
             c-0.053-0.781-0.365-1.531-0.412-2.262c-0.079-1.225-0.286-2.42-0.427-3.63c-0.139-1.184-0.483-2.367-0.325-3.561
             c0.128-0.97-0.272-1.972,0.242-2.936c0.083-0.156-0.06-0.814-0.506-1.031c-0.776-0.378-0.98-0.946-0.694-1.775
             c0.164-0.474-0.208-0.84-0.538-1.136c-0.17-0.153-0.465-0.073-0.542,0.113c-0.163,0.391-0.083,0.827,0.106,1.182
             C193.967,385.432,194.297,385.459,194.563,385.564z M192.152,370.466c-0.526-0.076-0.942-0.106-1.343-0.199
             c-1.712-0.396-2.235-0.188-3.081,1.335c-0.178,0.321-0.205,0.725-0.37,1.057c-1.23,2.472-1.412,2.203,1.231,3.868
             c0.592,0.373,0.996,0.038,1.495-0.008c2.078-0.193,3.362-2.737,2.275-4.525C192.084,371.541,191.644,371.102,192.152,370.466z
              M232.872,360.187c-0.136-0.348,0.057-0.817-0.301-1.141c-0.121-0.108-0.363-0.327-0.399-0.21
             c-0.355,1.144-0.674,0.14-0.996-0.003c-0.223-0.099-0.412-0.035-0.568,0.113c-1.052,1.001-2.058,2.012-2.368,3.54
             c-0.166,0.817,0.072,1.325,0.766,1.675c0.305,0.153,0.666,0.212,0.945,0.397c0.528,0.349,0.761,0.092,0.894-0.378
             c0.208-0.74,0.664-1.326,1.093-1.941C232.364,361.628,232.906,361.05,232.872,360.187z M430.229,339.479
             c-0.12,0.533-0.098,0.853,0.171,1.053c0.461,0.343,0.286,0.767,0.123,1.112c-0.257,0.54-0.451,0.974-0.013,1.56
             c0.158,0.21,0.07,0.588,0.513,0.507c0.325-0.06,0.485-0.159,0.502-0.6c0.021-0.597,0.414-1.185-0.039-1.776
             c0.94-0.408,0.332-1.387,0.729-2.01c0.144-0.22,0.313-0.578-0.053-0.833c-0.162-0.113-0.314-0.127-0.469,0.005
             c-0.267,0.226-0.4,0.555-0.248,0.835c0.233,0.434,0.131,0.779-0.232,0.951C430.681,340.536,430.44,340.09,430.229,339.479z
              M429.601,338.415c0.091-0.052,0.302-0.116,0.304-0.185c0.02-0.662,0.36-1.12,0.838-1.534c0.143-0.124,0.067-0.358-0.162-0.362
             c-0.303-0.004-0.676-0.015-0.811,0.324c-0.203,0.519-0.339,1.065-0.484,1.604C429.28,338.279,429.458,338.347,429.601,338.415z
              M175.377,417.027c0.937-0.095,1.878-0.172,2.935-0.865C176.988,416.004,176.205,416.586,175.377,417.027z M482.757,375.063
             c-0.43-0.571-0.75-0.916-1.301-0.658c-0.086,0.04-0.18,0.275-0.141,0.337C481.647,375.256,482.157,374.971,482.757,375.063z"/>
           <path d="M163.835,451.9c-0.275-0.291,0.206-0.447-0.005-0.709c-0.712-0.882,0.571-1.369,0.625-1.354
             c0.998,0.293,1.657-0.551,2.513-0.705c0.891-0.162,1.769-0.326,2.669-0.313c0.76,0.008,1.289-0.56,1.803-0.896
             c1.023-0.668,2.248-0.631,3.244-1.244c0.076-0.047,0.227-0.067,0.291-0.024c1.164,0.785,2.243-0.236,3.373-0.156
             c0.159,0.01,0.361-0.059,0.483-0.16c1.378-1.154,3.101-0.969,4.698-1.338c1.373-0.316,2.63-0.191,3.953-0.078
             c0.507,0.043,1.031-0.027,1.506-0.363c0.658-0.467,1.378-0.541,2.096-0.047c0.471,0.324,0.914,0.228,1.277-0.194
             c0.438-0.513,1.001-0.595,1.644-0.711c1.269-0.234,2.531-0.521,3.781-0.919c1.453-0.461,3.076-1.243,4.551-0.657
             c1.651,0.655,2.902-0.322,4.321-0.523c0.583-0.084,1.345-0.385,1.769-0.221c0.819,0.317,1.419,0.184,2.118-0.176
             c1.504-0.775,3.166-0.757,4.792-0.816c1.718-0.064,3.396-0.416,5.083-0.662c1.798-0.264,3.588-0.111,5.38-0.195
             c0.532-0.024,1.042-0.041,1.594-0.209c0.641-0.194,1.471-0.459,2.184,0.056c0.234,0.168,0.533,0.26,0.792,0.125
             c1.394-0.728,2.962-0.488,4.43-0.814c0.583-0.129,1.252,0.183,1.802-0.278c0.652,1.18,1.079-0.037,1.627-0.111
             c1.687-0.23,3.377-0.438,5.088-0.517c2.365-0.108,4.715-0.51,7.079-0.672c1.533-0.104,3.039-0.434,4.604-0.334
             c1.892,0.123,3.788-0.271,5.675-0.309c2.119-0.041,4.206-0.396,6.327-0.406c2.229-0.01,4.458-0.385,6.686-0.371
             c2.278,0.015,4.554-0.358,6.839,0.015c0.693,0.11,1.438-0.056,2.155-0.125c2.25-0.224,4.513-0.146,6.771-0.353
             c1.467-0.135,2.991-0.162,4.486-0.072c1.774,0.107,3.52-0.454,5.31-0.11c1.492,0.287,2.994-0.174,4.506-0.101
             c1.664,0.082,3.344,0.113,5.001-0.021c2.556-0.209,5.096,0.137,7.647,0.035c2.42-0.097,4.846-0.021,7.27-0.021
             c0.139,0,0.291-0.026,0.414,0.021c1.297,0.496,2.596-0.031,3.894,0.006c0.264,0.008,0.479,0.063,0.674,0.193
             c0.467,0.305,0.875,0.28,1.326-0.066c0.489-0.381,0.956-0.404,1.608-0.113c0.779,0.349,1.685,0.002,2.512-0.205
             c0.457-0.112,0.818-0.346,1.322,0.062c0.32,0.26,0.973,0.354,1.375,0.221c1.453-0.488,2.842-0.061,4.226,0.195
             c0.497,0.092,0.858-0.142,1.301-0.14c1.49,0.002,3.018,0.164,4.461-0.03c1.625-0.22,3.246-0.05,4.811-0.004
             c2.314,0.067,4.666,0.26,6.992,0.389c1.434,0.08,2.908,0.123,4.367,0.113c1.848-0.015,3.721,0.457,5.543,0.282
             c1.57-0.149,3.182-0.159,4.645,0.06c1.402,0.209,2.695-0.187,4.056-0.082c1.176,0.088,2.473-0.033,3.668,0.018
             c1.928,0.084,3.86-0.051,5.778,0.127c2.084,0.195,4.173-0.01,6.263,0.093c1.733,0.082,3.526-0.021,5.287-0.048
             c1.637-0.021,3.276,0.462,4.942,0.354c0.818-0.053,1.637-0.187,2.453-0.178c1.771,0.02,3.562,0.293,5.307,0.116
             c2.103-0.213,4.134,0.378,6.22,0.212c2.396-0.189,4.836-0.478,7.201-0.218c2.396,0.265,4.776,0.14,7.159,0.246
             c2.355,0.104,4.728-0.031,7.088-0.156c1.662-0.088,3.289,0.205,4.937,0.269c0.029,0,0.063,0.051,0.088,0.047
             c1.139-0.176,2.32,0.111,3.385-0.006c1.484-0.166,2.957-0.207,4.396-0.06c1.928,0.197,3.824-0.075,5.735-0.057
             c1.398,0.014,2.781-0.264,4.146,0.355c0.414,0.188,1.01-0.138,1.436-0.257c1.822-0.506,3.615,0.058,5.412-0.082
             c1.342-0.104,2.711-0.471,4.025-0.176c2.082,0.465,4.207-0.463,6.252,0.313c1.867-0.818,3.824,0.139,5.746-0.291
             c0.807-0.183,1.777,0.086,2.656,0.205c0.6,0.08,1.145,0.012,1.719-0.021c1.965-0.104,3.904-0.196,5.902,0
             c1.77,0.174,3.651,0.051,5.481-0.069c1.986-0.132,3.957-0.265,5.969-0.08c1.816,0.164,3.666,0.178,5.535-0.129
             c0.937-0.152,2.088-0.107,3.115,0.063c2.299,0.385,4.582-0.084,6.873-0.037c2.811,0.06,5.625-0.018,8.436,0.033
             c1.281,0.021,2.541-0.275,3.81-0.211c1.875,0.092,3.735,0.024,5.594-0.207c0.531-0.066,0.814,0.463,1.355,0.418
             c1.516-0.127,3.043-0.295,4.555-0.219c1.313,0.065,2.637-0.293,3.959,0.146c0.785,0.262,1.629-0.051,2.442-0.141
             c1.341-0.146,2.677,0.078,4.046-0.117c1.063-0.152,2.27-0.045,3.381,0.15c0.571,0.1,1.065,0.073,1.612-0.033
             c2.027-0.394,4.054,0.104,6.084,0.053c2.771-0.072,5.547,0.385,8.314-0.031c0.551-0.082,0.901,0.353,1.373,0.369
             c1.082,0.039,2.174,0.119,3.244,0.002c0.825-0.088,1.506,0.326,2.28,0.398c0.615,0.059,1.152-0.443,1.718-0.152
             c1.571,0.81,3.436,0.375,5.004,1.203c0.268,0.141,0.864-0.117,0.817,0.33c-0.028,0.277-0.442,0.635-1.012,0.656
             c-0.617,0.022-1.164-0.146-1.695-0.313c-1.186-0.371-2.362-0.362-3.567-0.444c-1.154-0.076-2.461,0.42-3.629-0.318
             c-0.394-0.248-1.101-0.15-1.613-0.019c-1.225,0.318-2.361-0.024-3.521-0.28c-0.127-0.027-0.27-0.082-0.383-0.049
             c-1.987,0.602-3.957,0.104-5.932-0.095c-0.172-0.018-0.414-0.073-0.508,0.013c-1.104,1.014-2.445,0.291-3.511,0.172
             c-0.957-0.109-1.813,0.701-2.698,0.098c-1.341,0.969-2.855-0.584-4.203,0.289c-1.256-0.744-2.648,0.172-3.931-0.32
             c-0.291-0.112-0.598-0.061-0.909,0.051c-0.482,0.175-1.011,0.316-1.445-0.086c-0.281-0.258-0.529-0.112-0.76-0.016
             c-1.642,0.691-3.39,0.426-5.084,0.627c-2.781,0.33-5.574,0.039-8.353,0.351c-0.649,0.071-1.535,0.071-1.973-0.189
             c-1.568-0.945-3.154-0.561-4.705-0.313c-0.859,0.14-1.742,0.148-2.514,0.044c-1.207-0.164-2.24-0.027-3.291,0.495
             c-0.193,0.099-0.438,0.322-0.674,0.123c-0.822-0.698-1.947-0.366-2.63-0.198c-1.104,0.271-2.166,0.016-3.235,0.209
             c-0.646,0.114-1.371-0.57-2.15-0.142c-0.617,0.34-1.164,0.24-1.881,0.008c-0.916-0.299-2.006-0.358-3.021-0.104
             c-0.69,0.172-1.424,0.182-2.069,0.535c-0.117,0.063-0.295,0.119-0.402,0.074c-1.688-0.701-3.414-0.164-5.123-0.199
             c-0.285-0.006-0.557-0.271-0.852-0.347c-0.429-0.112-0.916-0.43-1.23,0.211c-0.184,0.371-0.572,0.328-0.826,0.24
             c-1.848-0.637-3.721-0.158-5.58-0.196c-1.959-0.044-3.936,0.446-5.879-0.177c-0.157-0.051-0.405-0.084-0.51,0
             c-1.115,0.927-2.473,0.146-3.666,0.527c-0.231,0.074-0.549-0.041-0.807-0.127c-1.535-0.514-3.068-0.109-4.582,0.063
             c-0.762,0.087-1.486,0.232-2.229-0.004c-1.451-0.457-2.846,0.313-4.305,0.164c-1.682-0.172-3.389-0.225-5.076-0.139
             c-1.051,0.055-2.049-0.316-3.029-0.248c-1.038,0.072-2.143-0.266-3.153,0.305c-0.521,0.295-1.072-0.102-1.621-0.102
             c-1.342,0.006-2.685-0.033-4.025-0.076c-0.19-0.006-0.477-0.09-0.549-0.229c-0.654-1.242-1.393-0.343-2.063-0.066
             c-0.308,0.125-0.515,0.512-0.822,0.018c-0.047-0.073-0.266-0.1-0.377-0.063c-2.094,0.693-4.269-0.051-6.377,0.359
             c-0.236,0.047-0.533-0.046-0.717,0.065c-1.269,0.758-2.486,0.348-3.677-0.156c-0.434-0.184-0.778,0.029-1.073,0.138
             c-1.289,0.463-2.552,0.428-3.88,0.196c-1.071-0.186-2.184,0.117-3.282-0.03c-2.009-0.271-4.017-0.599-6.033-0.711
             c-1.299-0.074-2.688-0.476-3.916,0.393c-0.176,0.123-0.412,0.186-0.586,0.037c-0.697-0.596-1.344-0.234-2.021,0.047
             c-0.76,0.316-1.569,0.252-2.364,0.328c-2.355,0.223-4.701-0.404-7.041,0.08c-1.287,0.268-2.562-0.16-3.777-0.447
             c-1.109-0.26-2.162-0.16-3.242-0.152c-0.449,0.005-0.895,0.048-1.336-0.137c-0.201-0.084-0.592-0.106-0.688,0.01
             c-0.847,1.041-1.922,0.564-2.902,0.441c-0.688-0.086-1.35,0.053-2.027,0.012c-0.551-0.033-1.067,0.271-1.657-0.16
             c-0.166-0.12-1.017-0.008-1.421,0.191c-0.479,0.234-0.887,0.1-1.305,0.064c-1.795-0.15-3.602-0.65-5.387-0.183
             c-1.406,0.369-2.752-0.127-4.135-0.033c-0.527,0.037-1.134-0.297-1.716-0.438c-0.879-0.211-0.854-0.312-1.299,0.381
             c-0.354-0.049-0.227-0.467-0.473-0.619c-0.232-0.145-0.48-0.205-0.68-0.055c-0.978,0.746-1.357,0.947-2.718,0.727
             c-0.637-0.104-1.481,0.443-1.932-0.467c-0.012-0.025-0.057-0.037-0.086-0.057c-0.822,1.338-1.914-0.058-2.922,0.262
             c-0.937,0.295-2.047,0.189-3.111-0.236c-1.52-0.608-3.16-0.2-4.645,0.23c-0.699,0.203-0.828,0.068-1.058-0.396
             c-0.35-0.709-0.774-0.821-1.332-0.204c-0.356,0.395-2.575,0.625-3.008,0.284c-0.399-0.313-0.842-0.315-1.311-0.403
             c-1.443-0.273-2.781,0.342-4.168,0.356c-1.97,0.023-3.959-0.321-5.9-0.121c-1.641,0.17-3.266,0.246-4.883,0.105
             c-1.596-0.14-3.242,0.229-4.762-0.224c-1.222-0.364-2.279-0.178-3.449,0.017c-0.642,0.104-1.562,0.156-1.896-0.83
             c-0.08-0.236-0.323-0.074-0.526-0.029c-0.834,0.185-1.693,0.152-2.523,0.031c-0.637-0.092-0.625-0.191-0.854,0.562
             c-0.048,0.149-0.162,0.299-0.277,0.258c-1.184-0.433-2.377,0.073-3.58-0.017c-0.938-0.069-1.945-0.037-2.922-0.006
             c-0.821,0.027-1.735,0.107-2.447-0.205c-0.934-0.405-1.844,0.14-2.793-0.28c-0.661-0.294-1.557,0.254-2.391,0.272
             c-0.336,0.006-0.661,0.363-1.031-0.027c-0.127-0.133-0.354-0.164-0.479-0.041c-0.729,0.718-1.258,0.255-1.778-0.278
             c-0.334-0.342-0.506-0.146-0.712,0.166c-0.299,0.451-0.688,0.606-1.249,0.375c-0.603-0.246-1.33-0.103-1.868,0.02
             c-1.315,0.299-2.487-0.311-3.74-0.291c-0.523,0.008-1.053-0.213-1.607-0.076c-0.507,0.125-0.977,0.045-1.494-0.146
             c-0.547-0.203-1.127-0.123-1.777,0.129c-1.028,0.396-2.203,0.496-3.324,0.545c-1.398,0.063-2.814-0.088-4.201,0.141
             c-0.604,0.099-0.957-0.262-1.389-0.456c-0.596-0.271-1.111-0.382-1.65,0.084c-0.119,0.102-0.394,0.215-0.459,0.159
             c-0.947-0.803-1.773-0.483-2.615,0.195c-0.54,0.437-1.217,0.441-1.879,0.406c-2.008-0.103-4.021-0.135-6.03-0.226
             c-1.075-0.047-2.216,0.041-3.319,0.105c-1.84,0.107-3.613,0.895-5.467,0.574c-1.115-0.193-2.336,0.209-3.264-0.088
             c-1.42-0.453-2.526,0.53-3.645,0.35c-1.552-0.254-3.013,0.451-4.556,0.039c-0.575-0.152-1.381,0.201-2.066,0.342
             c-0.888,0.183-1.771,0.058-2.625,0.072c-0.943,0.02-1.829,0.557-2.663,0.379c-1.192-0.254-2.257,0.316-3.333,0.217
             c-0.865-0.08-1.513,0.365-2.296,0.416c-0.82,0.055-1.644,0.248-2.458,0.103c-1.387-0.25-2.706,0.28-4.067,0.27
             c-0.13,0-0.346,0.125-0.38,0.082c-0.722-0.926-1.337-0.127-2.055,0.023c-1.16,0.243-2.38,0.204-3.575,0.274
             c-1.355,0.08-2.734-0.123-4.042,0.451c-0.583,0.254-1.146,0.305-1.727-0.189c-0.484-0.413-1.193-0.334-1.737-0.114
             c-1.681,0.674-3.43,0.832-5.206,0.879c-0.451,0.012-0.894,0.028-1.309,0.258c-0.171,0.094-0.453,0.205-0.578,0.131
             c-1.03-0.617-1.798,0.119-2.646,0.459c-0.569,0.228-1.131,0.525-1.774,0.207c-0.113-0.055-0.285-0.049-0.412-0.01
             c-1.974,0.59-4.04,0.277-6.05,0.646c-2.015,0.369-4.094,0.373-6.135,0.619c-0.917,0.109-1.812,0.412-2.715,0.635
             c-0.167,0.041-0.431,0.21-0.469,0.164c-1.033-1.213-1.769,0.312-2.69,0.354c-2.194,0.104-4.358,0.711-6.566,0.979
             c-1.78,0.22-3.55,0.673-5.326,1.013c-0.312,0.059-0.575,0.037-0.885-0.013c-0.644-0.102-1.295-0.112-1.882,0.349
             c-0.862,0.676-1.976,0.541-2.969,0.735c-0.925,0.185-1.908,0.076-2.778,0.556c-0.625,0.344-1.261-0.082-1.927,0.086
             c-1.449,0.365-2.794,0.998-4.166,1.537C165.392,451.852,164.513,451.199,163.835,451.9z"/>
           <path d="M97.956,420.004c-0.071-1.328,0.324-2.596,0.517-3.879c0.2-1.328,0.067-2.646,0.065-3.949
             c-0.001-1.012,0.169-2.057,0.009-3.034c-0.231-1.413,0.098-2.893-0.457-4.231c-0.24-0.58,0.203-0.937,0.176-1.457
             c-0.046-0.908-0.37-1.733-0.468-2.607c-0.144-1.282,0.044-2.582-0.189-3.872c-0.085-0.471-0.156-0.941-0.274-1.411
             c-0.322-1.287-0.705-2.535-0.677-3.923c0.019-0.938-0.109-1.944-0.322-2.925c-0.314-1.447-0.881-2.944-0.277-4.475
             c0.069-0.176,0.021-0.344-0.122-0.471c-0.792-0.706-0.552-1.682-0.752-2.561c-0.29-1.268-0.349-2.568-0.728-3.831
             c-0.308-1.024-0.49-2.135-0.413-3.263c0.061-0.88-0.151-1.774-0.539-2.568c-0.172-0.354-0.3-0.663-0.319-1.054
             c-0.1-2.004-0.478-3.978-0.706-5.958c-0.234-2.036-0.451-4.123-0.211-6.225c0.148-1.297-0.098-2.652-0.274-3.967
             c-0.147-1.094,0.052-2.136,0.312-3.161c0.086-0.342,0.083-0.629,0.101-0.959c0.059-1.129-0.665-1.164-1.429-1.081
             c-1.403,0.151-2.799,0.497-4.2,0.511c-1.177,0.012-2.371,0.365-3.548-0.03c-0.267-0.09-0.551-0.08-0.816,0.039
             c-1.581,0.711-3.292,0.478-4.94,0.704c-0.716,0.098-1.404,0.569-2.136,0.072c-0.673,1.296-1.782,0.123-2.706,0.406
             c-0.824,0.252-1.872,0.761-2.889,0.272c-0.155-0.075-0.448,0.098-0.659,0.195c-0.177,0.082-0.302,0.338-0.541,0.188
             c-1.195-0.751-2.317-0.177-3.504,0.08c-1.017,0.22-2.107,0.068-3.157,0.168c-1.046,0.099-2.099,0.081-3.132,0.193
             c-0.465,0.051-0.772-0.169-1.161-0.212c-1.583-0.172-3.203,0.256-4.758-0.295c-0.031-0.012-0.074-0.016-0.103-0.003
             c-1.853,0.831-3.973-0.047-5.828,0.949c-0.789,0.425-1.729-0.106-2.632-0.019c-0.464,0.046-1.054-0.174-1.616-0.008
             c-0.188,0.055-0.504,0.227-0.558-0.196c-0.02-0.16-0.199-0.319-0.246-0.264c-0.588,0.706-1.58-0.407-2.132,0.485
             c-0.083,0.134-0.433,0.258-0.549,0.192c-1.184-0.668-2.187,0.04-3.207,0.422c-0.838,0.313-2.365-0.074-2.785-0.836
             c-0.058-0.104-0.051-0.369-0.028-0.375c0.842-0.207,0.576-0.917,0.594-1.424c0.034-0.956,0.868-1.244,1.426-1.459
             c1.141-0.439,2.152-1.231,3.617-0.961c0.886,0.163,1.822-0.227,2.83,0.284c0.874,0.443,1.981-0.267,3.036,0.006
             c0.561,0.146,1.198,0.104,1.855-0.047c0.774-0.178,1.764-0.315,2.48,0.472c0.131,0.145,0.435,0.359,0.657,0.19
             c0.967-0.738,2.206-0.203,3.231-0.737c0.503-0.262,1.067,0.194,1.627,0.184c1.037-0.017,2.064-0.179,3.095-0.258
             c1.228-0.094,2.447,0.016,3.563,0.318c1.136,0.308,1.971-0.354,2.958-0.447c1.013-0.095,2.097-0.384,3.301-0.086
             c0.183,0.045,0.401-0.064,0.605-0.083c0.891-0.082,1.788-0.646,2.676,0.064c0.117,0.094,0.4,0.003,0.601-0.034
             c0.659-0.122,1.295-0.523,1.995-0.122c0.092,0.053,0.337,0.013,0.389-0.065c0.761-1.141,2.028-0.798,3.047-0.918
             c2.226-0.262,4.502-0.136,6.709-0.562c1.729-0.333,3.441,0.289,5.146-0.102c0.92,0.902,1.682,0.07,2.508-0.213
             c1.155-0.396,2.508,0.086,3.564-0.782c1.898,0.528,3.682-0.317,5.515-0.409c0.94-0.047,1.822-0.149,2.682-0.437
             c0.73-0.244,1.412,0.059,2.128,0.02c3.306-0.18,6.59-0.73,9.934-0.356c1.372,0.153,2.8-0.293,4.207-0.337
             c1.909-0.06,3.829,0.022,5.729,0.049c1.519,0.021,3.157-0.061,4.711-0.339c1.142-0.204,2.328-0.204,3.308,0.233
             c1.177,0.524,2.305,0.409,3.407,0.212c0.989-0.176,1.917-0.224,2.903-0.088c1.862,0.256,3.745,0.381,5.549,0.963
             c0.498,0.161,1.213,1.682,0.951,2.242c-0.32,0.683-1.209,0.913-1.673,0.66c-1.162-0.633-2.396-0.344-3.552-0.446
             c-1.67-0.148-3.385-0.491-5.048-0.245c-1.5,0.222-2.971-0.057-4.428-0.082c-2.039-0.036-4.097,0.291-6.141-0.088
             c-0.854-0.158-1.628,0.498-2.491,0.495c-1.193-0.003-2.441-0.27-3.564-0.002c-1.333,0.318-2.671,0.154-3.994,0.412
             c-0.845,0.165-1.767-0.001-2.647-0.095c-0.656-0.07-1.297,0.023-1.912,0.149c-1.628,0.333-3.298,0.091-4.912,0.406
             c-0.865,0.168-1.715,0.112-2.533-0.02c-1.176-0.191-2.172,0.617-3.312,0.424c-1.27-0.215-2.508,0.189-3.763,0.181
             c-0.55-0.004-0.69,0.224-0.589,0.682c0.206,0.936-0.383,1.915,0.175,2.839c0.083,0.138,0.039,0.47-0.076,0.59
             c-0.893,0.937-0.631,2.166-0.516,3.16c0.166,1.427-0.03,2.83-0.068,4.216c-0.028,1.035,0.285,1.88,0.424,2.817
             c0.134,0.9-0.046,1.821,0.161,2.784c0.436,2.025,0.562,4.111,0.914,6.163c0.314,1.833,0.813,3.617,0.966,5.513
             c0.163,2.031,0.41,4.224,1.758,6.039c0.409,0.551,0.424,1.382,0.239,2.184c-0.247,1.071-0.698,2.198-0.215,3.295
             c0.428,0.97-0.351,1.923,0.169,2.922c0.427,0.821,0.896,1.746,0.522,2.769c1.24,1.203,0.824,2.863,1.021,4.287
             c0.395,2.858,0.778,5.724,0.539,8.67c-0.169,2.094-0.075,4.258,0.379,6.402c0.271,1.276,0.458,2.793-0.383,4.086
             c-0.087,0.133-0.179,0.365-0.122,0.473c0.414,0.775-0.001,1.441-0.347,2.033c-0.3,0.514-0.405,1.176-0.224,1.49
             c0.858,1.487-0.341,2.479-0.771,3.621c-0.213,0.563-0.749,1.021-1.059,1.604c-0.597,1.125-1.726,1.754-2.734,2.426
             c-0.992,0.66-2.277,0.351-3.376,0.369c-1.198,0.021-2.417,0.232-3.662-0.02c-2.384-0.482-4.776-0.896-7.061-1.761
             c-0.159-0.061-0.323-0.12-0.489-0.149c-1.596-0.285-2.958-0.885-4.148-2.109c-0.963-0.99-2.127-1.889-3.522-2.33
             c-0.094-0.028-0.253-0.114-0.248-0.16c0.164-1.342-1.511-1.52-1.666-2.631c-0.073-0.528-0.573-0.373-0.828-0.619
             c-0.74-0.711-1.214-1.573-1.762-2.428c-1.102-1.717-2.344-3.354-3.671-4.932c-0.802-0.953-1.626-1.969-2.281-3.002
             c-0.742-1.17-1.678-2.159-2.439-3.291c-0.473-0.701-0.562-1.377-0.143-2.12c0.387-0.686,1.197-0.915,1.767-0.39
             c0.873,0.806,2.299,1.12,2.411,2.643c0.012,0.153,0.285,0.285,0.432,0.432c0.629,0.624,1.499,1.097,1.176,2.258
             c-0.08,0.285,0.221,0.646,0.493,0.876c1.298,1.092,2.238,2.563,3.096,3.915c0.868,1.367,2.088,2.369,3.007,3.65
             c0.613,0.854,1.879,1.441,2.491,2.336c1.167,1.707,3.044,2.287,4.559,3.422c0.224,0.168,0.411,0.306,0.568,0.549
             c0.219,0.339,0.467,0.562,1.023,0.435c0.91-0.207,1.685,0.442,2.519,0.719c0.919,0.308,1.729,0.877,2.825,0.303
             c0.67-0.35,1.416,0.345,2.149,0.496c2.697,0.562,5.225,0.117,7.247-1.721C97.497,423.258,98.039,421.67,97.956,420.004z"/>
           <path d="M343.128,361.064c-1.033-0.121-1.145,0.935-1.85,1.199c-0.354,0.133,0.014,0.488,0.006,0.745
             c-0.012,0.43,0.438,0.91,0.028,1.275c-0.811,0.718-0.766,1.917-1.569,2.624c-0.144,0.127-0.312,0.355-0.293,0.516
             c0.104,0.874-0.248,1.453-1.006,1.862c-0.248,0.134-0.379,0.404-0.158,0.708c0.789,1.092-0.092,1.684-0.771,2.198
             c-0.807,0.611-1.674,1.254-2.481,1.724c-1.195,0.695-2.75,1.683-4.234,1.017c-1.104-0.495-2.051-1.475-2.82-2.5
             c-0.295-0.396,0.246-0.663,0.267-1.062c-1.158-0.088-1.488-1-1.756-1.872c-0.265-0.859-0.584-1.691-0.9-2.529
             c-0.109-0.289-0.252-0.521-0.59-0.441c-0.269,0.062-0.369,0.29-0.371,0.56c0,0.174-0.053,0.359-0.008,0.52
             c0.461,1.659,0.024,3.435,0.67,5.07c0.277,0.7,0.281,1.436,0.025,2.137c-0.308,0.849,0.366,1.563,0.264,2.412
             c-0.045,0.379,0.1,0.803-0.172,1.15c-0.521,0.669-0.441,1.431-0.103,2.057c0.371,0.684,0.25,1.266-0.057,1.826
             c-0.562,1.025-0.537,1.953,0.166,2.895c0.133,0.178,0.449,0.341,0.102,0.777c-0.325,0.409,0.347,0.729,0.615,1.061
             c0.248,0.305,0.564,0.612,0.166,0.978c-0.305,0.279-0.631,0.229-1.033,0.003c-1.69-0.958-2.022-2.647-2.123-4.289
             c-0.121-1.992-0.559-4.002-0.358-5.963c0.164-1.597-0.244-3.079-0.381-4.589c-0.173-1.874,0.12-3.776-0.441-5.649
             c-0.287-0.957-0.316-2.087-0.248-3.097c0.121-1.771-0.389-3.464-0.393-5.229c-0.005-1.629,0.075-3.331-0.396-5.026
             c-0.353-1.265-0.419-2.738-0.205-4.182c0.137-0.927-0.23-1.992-0.079-2.967c0.192-1.236-0.296-2.37-0.306-3.565
             c-0.017-2.183-0.536-4.316-0.699-6.486c-0.035-0.472,0.293-0.714,0.626-0.864c0.503-0.227,0.923,0.068,1.304,0.378
             c1.031,0.838,1.132,2.082,1.365,3.248c0.271,1.346,0.541,2.7,0.664,4.063c0.099,1.075,0.521,2.139,0.217,3.237
             c-0.104,0.38,0.093,0.676,0.23,0.988c0.92,2.076,1.51,4.225,1.395,6.518c-0.028,0.583,0.361,1.005,0.457,1.563
             c0.425,2.453,0.675,4.957,1.658,7.284c0.68,1.61,1.01,3.33,1.56,4.961c0.237,0.709,0.223,2.03,1.481,2.274
             c0.283,0.055,0.383,0.386,0.494,0.635c0.227,0.502,0.979,0.68,1.098,0.563c0.968-0.939,2.525-0.885,3.287-2.293
             c0.734-1.362,1.771-2.566,2.486-3.98c0.608-1.205,0.912-2.525,1.584-3.708c0.248-0.437,0.465-0.919,0.75-1.34
             c0.289-0.425,0.551-0.808,0.188-1.298c-0.207-0.283,0.052-0.462,0.146-0.649c0.545-1.049,0.949-2.127,1.135-3.311
             c0.228-1.446,0.99-2.744,1.258-4.199c0.263-1.426,0.646-2.825,1.076-4.22c0.369-1.189,0.24-2.539,0.277-3.82
             c0.028-1.059,0.873-1.185,1.567-1.345c0.603-0.139,0.822,0.469,1.048,0.934c0.791,1.64,1.022,3.308,0.426,5.081
             c-0.244,0.726-0.455,1.549,0.465,2.068c0.068,0.039,0.147,0.209,0.121,0.248c-0.769,1.103,0.432,1.94,0.385,2.927
             c-0.053,1.075,0.506,2.171,0.211,3.163c-0.672,2.274,0.789,4.212,0.771,6.338c-0.019,1.806,0.649,3.524,0.506,5.333
             c-0.08,1.019,0.457,1.954,0.543,2.924c0.149,1.653,0.887,3.206,0.754,4.893c-0.041,0.538,0.396,0.902,0.549,1.377
             c0.098,0.296,0.35,0.644,0.191,0.875c-0.533,0.782-0.015,1.373,0.25,2.023c0.325,0.808,0.09,1.683,0.403,2.547
             c0.275,0.759,0.445,1.622,0.66,2.437c0.125,0.481,0.185,0.951,0.172,1.432c-0.01,0.43-0.162,0.847-0.586,1.027
             c-0.399,0.17-0.647-0.059-0.959-0.368c-1.272-1.272-2.25-2.602-1.844-4.566c0.076-0.366-0.186-0.704,0.465-0.735
             c0.252-0.013,0.26-0.607-0.02-0.634c-1.093-0.104-0.849-1.034-1.013-1.623c-0.149-0.542-0.278-1.053-0.506-1.583
             c-0.24-0.563-0.455-1.216-0.375-1.998c0.056-0.54-0.035-1.454-0.354-2.127c-0.713-1.491-0.758-3.077-0.709-4.682
             c0.006-0.207,0.063-0.441-0.013-0.619c-1.153-2.771-0.895-5.788-1.521-8.642c-0.279-1.272-0.354-2.593-0.785-3.818
             c-0.193-0.551,0.215-1.078-0.127-1.596c-0.115-0.177-0.01-0.532-0.367-0.5c-0.262,0.022-0.399,0.229-0.465,0.49
             c-0.168,0.68-0.229,1.525-0.104,2.043c0.309,1.271-0.65,1.89-0.966,2.811c-0.075,0.219-0.252,0.415-0.416,0.587
             C342.155,360.279,342.204,360.728,343.128,361.064z"/>
           <path d="M221.998,397.097c-0.369,0.247-0.766,0.446-0.602,0.896c0.093,0.255,0.221,0.411-0.111,0.515
             c-0.3,0.093-0.622,0.193-0.799-0.206c-0.262-0.589-0.433-0.809-0.941-0.093c-0.408,0.573-1.138,0.33-1.709,0.04
             c-0.685-0.349-1.29-0.591-2.134-0.274c-0.963,0.36-1.758-0.432-2.467-0.951c-0.359-0.266-0.671-0.697-1.038-1.035
             c-0.487-0.45-0.484-1.26-0.146-1.626c0.693-0.75,0.972-1.712,1.561-2.517c1.032-1.408,2.363-2.303,3.906-2.87
             c2.05-0.754,4.064-1.596,6.244-2.028c1.586-0.314,3.105-1.02,4.719-1.326c0.34-0.064,0.446-0.352,0.316-0.52
             c-0.481-0.617-0.471-1.556-1.25-1.958c-0.468-0.241-0.814-0.67-0.92-1.082c-0.299-1.165-1.047-1.148-1.971-0.999
             c-2.023,0.327-3.971,0.974-5.995,1.319c-1.752,0.3-1.987,0.314-2.412-1.432c-0.108-0.442-0.634-0.841-0.282-1.331
             c0.435-0.604,1.059-0.951,1.81-1.095c2.102-0.401,4.197-0.843,6.3-1.235c0.321-0.061,0.583-0.165,0.848-0.339
             c0.75-0.49,1.939-0.295,2.586,0.343c0.942,0.929,1.557,2.073,2.2,3.202c0.033,0.059,0.06,0.179,0.084,0.178
             c1.71-0.104,1.508,1.472,1.662,2.285c0.41,2.176,1.055,4.315,1.298,6.506c0.213,1.928,0.02,3.899,0.04,5.851
             c0.006,0.595-0.165,1.239,0.58,1.657c0.425,0.238,0.466,0.812,0.298,1.291c-0.302,0.865-1.108,1.146-2.559,0.699
             c-0.631-0.195-0.872-0.846-0.697-1.563c0.104-0.434,0.186-0.878,0.213-1.321c0.045-0.724-0.288-1.3-0.931-1.596
             c-0.625-0.288-1.323-0.235-1.743,0.349c-1.122,1.558-2.946,2.057-4.455,3.019C222.895,398.231,222.236,397.917,221.998,397.097z
              M230.037,392.081c0.019-1.198-0.596-1.763-1.69-1.651c-0.167,0.017-0.341-0.048-0.511-0.042c-1.384,0.044-2.778-0.708-4.16,0.054
             c-0.118,0.065-0.397,0.024-0.485-0.073c-0.57-0.623-0.924-0.209-1.189,0.266c-0.316,0.566-0.688,0.716-1.356,0.669
             c-0.553-0.038-1.177,0.111-1.59,0.746c-0.239,0.369-0.768,0.927-1.333,0.193c-0.11-0.144-0.319-0.149-0.456,0.003
             c-0.159,0.176-0.106,0.389-0.038,0.589c0.309,0.898,1.14,1.262,2.373,1.103c0.777-0.1,1.597-0.429,2.187,0.519
             c0.288,0.46,0.717,0.301,0.743-0.234c0.028-0.59,0.295-0.432,0.661-0.381c1.049,0.145,2.058,0.203,3.087-0.338
             c1.018-0.535,2.197-1.093,3.077,0.349c0.057,0.094,0.323,0.116,0.473,0.084c0.268-0.058,0.255-0.323,0.217-0.513
             C229.949,392.944,229.633,392.477,230.037,392.081z"/>
           <path d="M408.708,370.031c-0.32,0.138-0.273-0.964-0.686-0.09c-0.173,0.365-0.533,0.249-0.835,0.249
             c-0.676,0-1.459-0.622-1.938,0.457c-0.129,0.289-0.492-0.382-0.805-0.178c-1.4,0.915-3.201,0.603-4.604,1.526
             c-0.639,0.42-1.053,1.799-0.856,2.811c0.198,1.038,1.065,1.367,1.793,1.291c0.75-0.077,1.35,0.571,2.063,0.219
             c0.029-0.014,0.099-0.012,0.101-0.002c0.641,1.95,2.442-0.126,3.334,0.958c0.028,0.034,0.153-0.024,0.2,0.008
             c1.33,0.882,2.595,0.172,3.878-0.146c0.856-0.213,2.95,0.959,3.221,1.794c0.229,0.714-0.443,1.101-0.625,1.671
             c-0.24,0.747-0.623,1.404-1.719,0.933c-0.763-0.327-1.718-0.142-2.418-0.75c-0.209-0.182-0.503-0.201-0.691-0.11
             c-1.441,0.692-2.588-0.004-3.604-0.856c-0.887-0.744-1.793-0.397-2.696-0.309c-0.424,0.041-0.789,0.098-1.191-0.105
             c-1.188-0.599-1.975-0.095-1.926,1.29c0.016,0.455-0.053,0.806-0.201,1.229c-0.17,0.485-0.234,1.201,0.389,1.48
             c1,0.449,0.123,0.846-0.045,1.14c-0.106,0.186-0.7,0.025-0.6,0.585c0.094,0.514,0.598,0.382,0.938,0.627
             c-0.301,0.391-0.338,0.771-0.18,1.298c0.258,0.857-0.176,1.672-0.619,2.413c-0.119,0.196-0.366,0.354-0.627,0.262
             c-0.252-0.09-0.188-0.329-0.166-0.535c0.011-0.103,0.035-0.228-0.008-0.309c-0.881-1.628-0.832-3.469-1.184-5.215
             c-0.127-0.632-0.175-1.34-0.021-1.954c0.334-1.34,0.041-2.63-0.168-3.915c-0.084-0.51-0.297-1.179-1.014-1.329
             c-0.135-0.029-0.264-0.045-0.318-0.214c-0.365-1.139,0.283-2.909,1.33-3.643c0.234-0.164,0.482-0.396,0.158-0.663
             c-0.787-0.647-0.469-1.372-0.244-2.135c0.26-0.878,0.555-1.774,0.309-2.703c-0.061-0.228,0.009-0.38,0.027-0.575
             c0.172-1.699,0.445-3.395,0.301-5.114c-0.024-0.307-0.053-0.656,0.062-0.925c0.567-1.331,0.162-2.773,0.526-4.129
             c0.296-1.09,0.306-2.226,0.396-3.348c0.025-0.328-0.059-0.6-0.111-0.901c-0.102-0.589-0.203-1.121,0.31-1.717
             c0.399-0.465,0.426-1.298-0.127-1.881c-0.361-0.38-0.351-2.006,0.053-2.299c0.076-0.056,0.191-0.12,0.271-0.103
             c0.857,0.176,1.604,1.548,1.207,2.395c-0.42,0.902-0.151,1.512,0.562,2.06c0.496,0.383,0.596,1.734,0.094,2.113
             c-0.639,0.483-0.668,0.969-0.416,1.691c0.406,1.164-0.17,2.303-0.303,3.454c-0.021,0.196-0.197,0.275-0.383,0.287
             c-1.131,0.072-0.523,0.64-0.226,0.968c1.174,1.295,1.334,2.504,0.414,3.91c-0.309,0.473-0.313,0.865,0.058,1.308
             c0.366,0.438,0.411,0.897-0.201,1.175c-0.293,0.131-0.142,0.181-0.029,0.337c0.697,0.974,0.668,1.856-0.086,2.736
             c-0.17,0.197-0.576,0.4-0.152,0.605c0.418,0.201,0.474,1.006,1.215,0.668c2.093-0.953,4.21-1.845,6.509-2.204
             c0.508-0.079,0.895-0.471,1.393-0.646c0.604-0.212,0.892,0.042,1.258,0.35c0.443,0.372,0.195,0.737,0.011,1.115
             C408.815,368.936,408.761,369.479,408.708,370.031z"/>
           <path d="M269.557,378.623c-0.228,0.269-0.42,0.496-0.622,0.734c1.268,0.667,1.825,1.664,2.101,3.002
             c0.297,1.44,0.19,2.978,0.965,4.323c0.254,0.441,0.491,0.979-0.043,1.454c-0.133,0.118-0.198,0.349-0.069,0.475
             c1.122,1.098,1.003,2.781,1.868,3.95c0.323,0.436,1.191,0.485,1.824,0.664c0.178,0.05,0.405-0.107,0.604-0.094
             c0.389,0.026,1.004-0.52,1.083-0.046c0.084,0.507,0.113,1.185-0.406,1.728c-1.498,1.564-3.349,0.978-4.867-0.324
             c-1.009-0.866-1.31-2.149-1.705-3.322c-0.154-0.456-0.478-0.813-0.563-1.274c-0.239-1.302-0.715-2.538-0.921-3.863
             c-0.178-1.141-0.854-2.205-1.315-3.301c-0.067-0.158-0.269-0.325-0.239-0.447c0.354-1.448-1.199-1.698-1.645-2.639
             c-0.043-0.092-0.249-0.194-0.335-0.164c-1.22,0.422-2.462-0.028-3.692,0.107c-0.555,0.062-0.864,0.18-1.038,0.756
             c-0.213,0.707-0.746,1.069-1.524,0.896c-0.628-0.141-1.264,0.178-1.915-0.107c-0.263-0.115-0.486,0.22-0.506,0.611
             c-0.065,1.317-0.38,1.628-1.712,1.817c-1.577,0.224-2.271,1.023-2.405,2.519c-0.051,0.561,0.258,0.886,0.516,1.173
             c0.467,0.521,0.734,1.144,1.023,1.735c0.261,0.535,0.61,1.305-0.515,1.47c-0.432,0.063-0.335,0.494-0.207,0.657
             c0.596,0.759,0.208,1.494,0.079,2.316c-0.438-0.088-0.638-0.643-1.209-0.343c-0.418,0.221-0.962-0.231-0.98-0.683
             c-0.063-1.663-1.165-2.99-1.384-4.59c-0.023-0.17-0.07-0.34-0.128-0.501c-0.234-0.644,0.4-1.141,0.29-1.762
             c-0.737,0.181-0.994-0.408-1.404-0.819c-0.543-0.544-0.516-1.015-0.144-1.643c0.633-1.067,1.064-2.176,0.498-3.462
             c-0.267-0.605-0.167-1.274,0.102-1.916c0.183-0.435,0.399-0.943,0.331-1.377c-0.164-1.054,0.709-1.153,1.204-1.132
             c0.641,0.027,0.48,0.67,0.269,1.129c-0.082,0.179-0.09,0.337,0.057,0.47c0.34,0.306,1.085,2.251,0.98,2.643
             c-0.04,0.147-0.274,0.225-0.19,0.412c0.903,0.461,1.621,0.063,2.466-0.275c0.931-0.372,1.664-1.072,2.521-1.391
             c1.306-0.484,2.363-1.605,3.744-1.69c1.292-0.08,2.557-0.403,3.853-0.358c0.697,0.023,1.296-0.049,1.829-0.638
             c0.447-0.494,1.456,0.037,1.681,0.78C268.053,377.253,268.398,378.2,269.557,378.623z"/>
           <path d="M359.433,371.989c0.451,0.09,0.677,0.792,0.941,0.17c0.682-1.604,2.281-1.999,3.568-2.794
             c0.809-0.5,1.686-0.91,2.569-1.267c1.129-0.455,1.258-0.34,1.48,0.949c0.022,0.131,0.09,0.254,0.199,0.549
             c-1.234-1.005-2.373-0.776-3.474-0.001c-0.68,0.479-0.594,1.176,0.16,1.513c0.258,0.115,0.463,0.153,0.568-0.182
             c0.106-0.345,0.576-0.773,0.629-0.664c0.285,0.598,1.08,0.195,1.313,0.771c0.093,0.222,0.197,0.452,0.351,0.631
             c0.313,0.362,0.563,0.681,1.143,0.193c0.865-0.729,2.162-0.645,3.043-1.453c0.289-0.264,0.576-0.569,0.379-0.85
             c-0.235-0.338,0.105-1.083-0.721-1.035c-0.514,0.03-0.602-0.688-1.158-0.654c0.229-0.449,0.441-0.289,0.646-0.144
             c0.326,0.234,0.756,0.291,0.916-0.056c0.762-1.638,2.149-1.04,3.354-0.968c0.572,0.035,1.197,0.169,1.554,0.78
             c0.141,0.24,0.334,0.393,0.163,0.728c-0.2,0.4-0.043,0.779,0.195,1.162c0.553,0.881,0.275,1.502-0.502,2.149
             c-1.088,0.908-2.268,1.315-3.658,1.518c-0.516,0.074-1.037,0.878-1.676,1.195c-0.184,0.09-0.396,0.363-0.506,0.32
             c-1.365-0.53-2.547,0.546-3.81,0.426c-1.067-0.101-2.065-0.687-2.868-1.422c-0.636-0.583-1.154-0.974-1.925-0.249
             c-0.434,0.408-0.579,0.145-0.594-0.324c-0.004-0.229,0.08-0.536-0.223-0.627c-0.283-0.086-0.662,0.072-0.713,0.278
             c-0.125,0.502-0.933,0.202-0.867,0.817c0.031,0.305-0.215,0.617,0.209,0.911c0.699,0.488,0.6,1.283-0.154,1.914
             c-1.383,1.156-1.336,1.742,0.138,2.824c0.448,0.331,0.901,0.643,1.401,0.876c0.375,0.174,0.742,0.754,1.195,0.048
             c0.096-0.149,0.422-0.06,0.541,0.132c0.434,0.688,1.014,0.531,1.697,0.476c1.438-0.117,2.893-0.102,4.336-0.036
             c0.778,0.034,1.471-0.154,2.141-0.462c0.287-0.132,0.555-0.216,0.771-0.032c1.227,1.043,2.594,0.21,3.885,0.281
             c0.776,0.043,1.588,0.202,2.412-0.164c0.43-0.19,0.61,0.463,0.584,0.889c-0.035,0.536-0.49,0.999-0.902,0.835
             c-1.736-0.688-2.42,0.755-3.488,1.565c-0.311-0.151,0.273-0.813-0.362-0.778c-0.521,0.028-1.052,0.064-1.063,0.793
             c0,0.011-0.18,0.05-0.256,0.022c-0.479-0.17-0.688-0.652-1.063-0.955c-0.625,1.299-1.278,1.506-2.577,0.88
             c-0.789-0.381-1.541,0.125-2.312,0.192c-1.543,0.135-3.063,0.168-4.553-0.323c-0.689-0.228-1.402-0.47-2.119-0.371
             c-0.908,0.125-1.607-0.646-2.498-0.469c-0.338-1.048-1.879-1.031-2.002-2.264c-0.023-0.225-0.086-0.371-0.322-0.467
             c-0.563-0.229-0.582-0.794-0.551-1.243c0.066-0.918,0.576-1.728,1.143-2.376c0.517-0.589,1.441-0.219,2.175-0.37
             c0.366-0.075,0.869,0.26,1.063-0.286c0.203-0.563-0.168-0.801-0.623-1.089c-0.276-0.177-0.801,0.033-0.834-0.425
             c-0.045-0.58,0.597-0.338,0.832-0.587C359.112,373.018,359.919,372.896,359.433,371.989z"/>
           <path d="M167.71,406.823c-0.716-1.717-0.158-3.707-1.187-5.356c-0.036-0.058-0.083-0.146-0.062-0.191
             c0.474-1.044-0.134-2.08-0.024-3.095c0.121-1.109-0.178-2.154-0.268-3.224c-0.063-0.756,0.429-1.382,0.14-2.209
             c-0.319-0.916-0.23-1.978-0.292-2.978c-0.045-0.741,0.495-1.396,0.353-2.162c-0.024-0.13,0.077-0.288,0.039-0.408
             c-0.489-1.575,0.292-3.188-0.165-4.772c-0.24-0.831,0.442-1.571,0.286-2.483c-0.354-2.063,0.07-4.16-0.019-6.253
             c-0.047-1.095-0.37-2.243,0.053-3.391c0.125-0.342-0.211-0.88-0.227-1.411c-0.036-1.228,0.478-2.38,0.296-3.616
             c-0.146-1,0.491-1.954,0.307-2.999c-0.168-0.954,0.174-1.897,0.194-2.864c0.029-1.391,0.025-2.716-0.458-4.042
             c-0.199-0.544,0.253-1.088,0.687-1.239c0.418-0.146,0.861,0.121,1.017,0.755c0.133,0.539,0.578,0.966,0.731,1.573
             c0.328,1.293,0.528,2.557,0.303,3.892c-0.092,0.541-0.011,1.111,0.054,1.683c0.167,1.464-0.268,2.961,0.118,4.438
             c0.034,0.127,0.046,0.341-0.027,0.403c-0.856,0.73-0.31,1.554-0.195,2.358c0.156,1.097,0.009,2.189-0.082,3.285
             c-0.117,1.402-0.379,2.815-0.149,4.214c0.139,0.845-0.002,1.624-0.186,2.407c-0.366,1.565,0.071,3.253-0.737,4.749
             c-0.112,0.206-0.057,0.426,0.209,0.482c0.782,0.167,0.681,0.857,0.514,1.245c-0.78,1.811,0.053,3.481,0.375,5.177
             c0.18,0.948,0.324,1.854,0.065,2.785c-0.3,1.084,0.165,2.109,0.27,3.154c0.096,0.95,0.1,1.902,0.125,2.846
             c0.066,2.45,0.276,4.882,0.704,7.292c0.096,0.538-0.018,1.069,0.141,1.618c0.194,0.667,0.305,1.433-0.679,1.724
             c-0.902,0.264-1.395-0.336-1.757-0.926C167.732,408.56,167.694,407.681,167.71,406.823z"/>
           <path d="M146.862,393.691c0,0.006,0.034,0.142,0.047,0.278c0.063,0.69-0.802,1.336,0.037,2.14
             c0.217,0.208-0.241,1.226-0.513,1.813c-0.426,0.918-0.756,1.872-1.256,2.774c-0.47,0.848-1.327,1.041-1.822,1.669
             c-0.568,0.721-1.067,1.491-1.679,2.191c-0.396,0.453-0.899,0.667-1.336,0.637c-2.461-0.177-4.96-0.294-7.269-1.25
             c-1.329-0.552-2.562-1.349-3.621-2.366c-0.247-0.238-0.524-0.464-0.828-0.618c-0.45-0.229-0.696-0.476-0.837-1.042
             c-0.359-1.443-0.77-2.887-1.241-4.295c-0.845-2.524-0.238-4.932,0.156-7.41c0.297-1.864,1.232-3.18,2.613-4.326
             c0.297-0.246,0.333-0.718,0.293-1.139c-0.055-0.583,0.313-0.749,0.762-0.595c0.592,0.204,1.399,0.387,1.593,0.933
             c0.313,0.881,0.426,1.967-0.07,2.785c-0.333,0.55-1.119,0.883-1.766,1.171c-0.614,0.272-0.872,0.644-0.769,1.276
             c0.108,0.666-0.354,1.176-0.453,1.791c-0.26,1.619,0.093,3.193,0.298,4.775c0.077,0.593,0.522,1.076,0.98,1.416
             c0.873,0.648,1.381,1.49,1.691,2.501c0.066,0.214,0.134,0.545,0.407,0.56c1.598,0.076,2.743,1.305,4.285,1.624
             c1.05,0.217,2.125,0.024,3.135,0.396c0.181,0.066,0.232-0.13,0.274-0.246c0.19-0.525,0.572-0.667,1.106-0.75
             c0.589-0.092,0.983-0.731,1.309-1.096c1.446-1.609,2.387-3.484,2.456-5.782c0.036-1.181,0.473-2.353,0.196-3.569
             c-0.034-0.147,0.134-0.228,0.288-0.216c0.366,0.028,0.638,0.153,0.797,0.541C146.562,391.323,146.816,392.415,146.862,393.691z"/>
           <path d="M432.196,388.461c0.067-0.582,0.147-1.026-0.642-0.788c-0.225,0.067-1.371,0.505-0.836-0.731
             c0.121-0.275-0.396-0.438-0.69-0.36c-0.74,0.193-0.813-0.276-0.979-0.803c-0.248-0.791-0.283-1.521,0.043-2.307
             c0.199-0.484-0.076-0.962-0.262-1.456c-0.563-1.493-0.771-3.139-0.547-4.65c0.233-1.584-0.188-3.002-0.308-4.498
             c-0.135-1.694-0.094-3.405-0.094-5.108c0-0.21,0.219-0.418,0.33-0.631c0.351-0.667,0.504-1.295-0.18-1.893
             c-0.271-0.234-0.313-0.325,0.213-0.377c0.414-0.04,0.33-0.704,0.012-1.088c-0.764-0.925-0.623-1.461,0.488-1.844
             c-1.086-1.053-0.885-2.418-0.906-3.728c-0.004-0.264,0.074-0.473,0.379-0.535c0.267-0.055,0.433-0.246,0.453-0.507
             c0.111-1.343,0.844-2.453,1.359-3.644c0.119-0.278,0.135-0.517,0.033-0.761c-0.427-0.096-0.291,0.397-0.521,0.417
             c-0.318,0.026-0.682,0.304-0.955-0.077c-0.201-0.279-0.205-0.609,0.021-0.863c0.664-0.753,1.176-1.5,0.225-2.395
             c0.162-0.159-0.236-0.624,0.391-0.573c0.591,0.048,0.427-0.762,0.396-0.842c-0.195-0.499,0.074-1-0.178-1.538
             c-0.283-0.606,0.272-1.173,0.819-1.502c0.578-0.349,1.33-0.398,1.709,0.152c0.252,0.367,0.17,1.07,0.041,1.573
             c-0.293,1.14-0.479,2.239-0.186,3.425c0.229,0.926-0.174,1.838-0.42,2.729c-0.215,0.771-0.129,1.467,0.026,2.262
             c0.181,0.927-0.063,1.976-0.284,2.933c-0.544,2.319-0.517,4.579-0.13,6.951c0.22,1.347,0.502,2.994-0.448,4.333
             c-0.338,0.475,0.397,0.45,0.293,0.927c-0.179,0.79-0.23,1.703-0.004,2.467c0.379,1.283-0.252,2.559,0.049,3.706
             c0.199,0.759-0.398,1.34-0.217,1.624c0.422,0.653,0.315,1.437,0.678,2c0.414,0.647,0.559,1.387,0.949,2.031
             c0.327,0.539,0.676,1.167-0.084,1.7c-0.156,0.11-0.209,0.32-0.107,0.467c0.68,0.991,0.141,2.164,0.49,3.205
             C432.679,388.05,432.542,388.262,432.196,388.461z"/>
           <path d="M485.136,378.257c-0.063-0.37-0.037-1.068-0.83-1.413c-0.358-0.156-0.344-0.256-0.094-0.71
             c0.508-0.925,0.215-2.019-0.139-3.02c-0.336-0.954-0.867-1.827-0.775-2.938c0.053-0.639-0.613-0.838-1.221-0.798
             c-0.793,0.052-1.027-0.116-0.715-1c0.33-0.934,0.631-1.687,1.569-2.253c0.509-0.307,0.75,0.147,1.156-0.056
             c2.039-1.022,4.07-0.344,6.111,0.101c0.592,0.129,1.268,0.132,1.646-0.558c0.043-0.079,0.144-0.201,0.193-0.19
             c1.707,0.336,3.41-0.395,5.119-0.03c0.242,0.052,0.317,0.157,0.408,0.379c0.153,0.386,0.397,0.31,0.581-0.006
             c0.56-0.956,1.365-0.878,2.236-0.554c0.158,0.059,0.435,0.188,0.463,0.146c0.783-1.098,1.73-0.163,2.578-0.268
             c0.51-0.063,0.93-0.648,1.576-0.682c0.488-0.026,0.982-0.248,1.121,0.478c0.053,0.282,0.242,0.294,0.469,0.241
             c0.689-0.16,2.676,0.496,3.076,0.981c0.221,0.27,0.217,0.479-0.012,0.724c-0.64,0.687-2.578,0.907-3.41,0.37
             c-0.236-0.152-0.529-0.193-0.666-0.004c-0.715,0.986-1.824,0.782-2.783,0.896c-0.783,0.092-1.543,0.086-2.281,0.459
             c-0.686,0.346-1.467-0.165-2.225,0.17c-1.135,0.501-2.223,0.315-3.283-0.4c-0.6-0.403-1.303-0.337-1.627,0.505
             c-0.072,0.184-0.178,0.334-0.354,0.32c-1.095-0.089-2.048,0.601-3.08,0.601c-0.748,0-1.498-0.406-2.238-0.66
             c-0.172-0.06-0.193-0.272-0.154-0.455c0.049-0.236,0.367-0.54-0.096-0.664c-0.318-0.086-0.357,0.254-0.471,0.453
             c-0.23,0.405-0.519,0.66-1.025,0.773c-0.977,0.218-1.066,0.647-0.408,1.373c0.314,0.346,0.938,0.592,0.408,1.255
             c-0.125,0.158,0.191,0.322,0.301,0.487c0.088,0.13,0.355,0.237,0.193,0.421c-0.969,1.099-0.025,1.732,0.471,2.604
             c0.459,0.81,0.93,1.665,1.226,2.565c0.35,1.063-0.55,1.773-0.896,2.638c-0.203,0.508-0.631,0.375-0.961,0.168
             C485.517,380.219,485.077,379.518,485.136,378.257z M492.304,366.849c-0.209,1.147,0.164,1.431,1.31,1.024
             C493.188,367.539,492.794,367.232,492.304,366.849z"/>
           <path d="M462.452,376.921c-1.033-0.12-1.707,0.111-2.168,1.206c-0.209,0.493-1.232,0.96-1.834,0.902
             c-1.236-0.118-2.48,0.452-3.672-0.047c-0.879-0.368-1.568-0.347-2.063,0.574c-0.104,0.199-0.285,0.088-0.447,0.003
             c-0.146-0.078-0.366-0.199-0.475-0.144c-1.066,0.562-2.17,0.255-3.273,0.303c-0.938,0.04-1.645-0.176-2.43-0.52
             c-0.57-0.25-0.896-0.439-1.01-1.214c-0.094-0.645-0.162-1.143,0.102-1.748c0.529-1.224,1.609-2.057,2.209-3.236
             c0.144-0.283,0.306-0.477,0.236-0.807c-0.127-0.615,0.443-1.316,0.99-1.104c1.026,0.399,1.803-0.195,2.674-0.455
             c0.736-0.22,1.311-0.938,2.203-0.714c0.09,0.022,0.268-0.187,0.356-0.319c0.068-0.104,0.064-0.256,0.093-0.387
             c1.139,0.41,1.5-1.285,2.694-0.951c0.662,0.185,1.195-0.618,1.982-0.631c0.764-0.011,1.24,0.286,1.463,0.858
             c0.229,0.586,0.279,1.234-0.23,1.841c-0.641,0.765-0.78,1.7-0.5,2.736c-1.127,0.071-2.139,0.518-3.186,0.873
             c-1.141,0.388-2.367,0.395-3.574,0.467c-0.651,0.038-1.295,0.259-1.963,0.322c-0.354,0.033-0.666,0.228-1.082,0.13
             c-0.533-0.124-0.748,0.295-0.916,0.761c-0.203,0.57,0.289,0.527,0.537,0.683c0.719,0.453,1.465,0.628,2.33,0.369
             c0.904-0.271,1.752,0.665,2.705,0.227c0.021-0.01,0.156,0.134,0.174,0.22c0.201,1.027,1.041,0.692,1.402,0.42
             c1.016-0.761,2.116-0.403,3.182-0.492c0.104-0.009,0.234,0.048,0.309,0.002C460.292,376.401,461.38,376.844,462.452,376.921z
              M457.472,372.14c-0.041-0.347-0.27-0.46-0.573-0.472c-0.597-0.022-0.462,0.523-0.591,0.823c-0.168,0.389,0.277,0.5,0.479,0.521
             C457.399,373.073,457.103,372.335,457.472,372.14z"/>
           <path d="M194.563,385.564c-0.266-0.105-0.596-0.133-0.681-0.291c-0.189-0.354-0.269-0.791-0.106-1.182
             c0.077-0.187,0.372-0.267,0.542-0.113c0.33,0.296,0.702,0.662,0.538,1.136c-0.287,0.829-0.083,1.397,0.694,1.775
             c0.446,0.217,0.589,0.875,0.506,1.031c-0.514,0.964-0.113,1.966-0.242,2.936c-0.158,1.193,0.186,2.377,0.325,3.561
             c0.142,1.21,0.348,2.405,0.427,3.63c0.047,0.729,0.359,1.479,0.412,2.262c0.063,0.935-0.093,1.756-0.76,2.449
             c-0.599,0.622-1.494,0.521-1.845-0.247c-0.814-1.78-1.246-3.594-0.327-5.476c0.105-0.217-0.031-0.312-0.106-0.452
             c-0.735-1.382-0.63-2.785-0.256-4.26c0.191-0.755,0.225-1.648,0.004-2.382c-0.275-0.919,0.01-1.588,0.419-2.308
             c0.047-0.083,0.091-0.257,0.056-0.285C193.1,386.52,194.379,386.218,194.563,385.564z"/>
           <path d="M192.152,370.466c-0.508,0.636-0.067,1.075,0.208,1.527c1.087,1.788-0.198,4.332-2.275,4.525
             c-0.499,0.046-0.903,0.381-1.495,0.008c-2.643-1.665-2.461-1.396-1.231-3.868c0.165-0.332,0.191-0.735,0.37-1.057
             c0.845-1.522,1.369-1.73,3.081-1.335C191.21,370.359,191.625,370.39,192.152,370.466z"/>
           <path d="M232.872,360.187c0.034,0.863-0.507,1.441-0.934,2.053c-0.43,0.615-0.885,1.201-1.093,1.941
             c-0.133,0.47-0.366,0.727-0.894,0.378c-0.28-0.186-0.64-0.244-0.945-0.397c-0.694-0.35-0.931-0.857-0.766-1.675
             c0.31-1.528,1.315-2.539,2.368-3.54c0.156-0.148,0.346-0.212,0.568-0.113c0.321,0.143,0.64,1.146,0.996,0.003
             c0.037-0.117,0.279,0.102,0.399,0.21C232.929,359.369,232.735,359.839,232.872,360.187z"/>
           <path d="M430.229,339.479c0.212,0.611,0.451,1.056,0.984,0.805c0.363-0.171,0.467-0.517,0.232-0.951
             c-0.152-0.28-0.019-0.609,0.248-0.835c0.153-0.132,0.307-0.118,0.469-0.005c0.365,0.255,0.195,0.613,0.053,0.833
             c-0.397,0.623,0.211,1.602-0.729,2.01c0.452,0.591,0.061,1.179,0.039,1.776c-0.017,0.44-0.177,0.54-0.503,0.6
             c-0.44,0.081-0.354-0.297-0.512-0.507c-0.438-0.586-0.244-1.021,0.012-1.56c0.164-0.345,0.339-0.769-0.122-1.112
             C430.132,340.333,430.108,340.012,430.229,339.479z"/>
           <path d="M429.601,338.415c-0.143-0.068-0.319-0.135-0.315-0.153c0.146-0.539,0.281-1.085,0.483-1.604
             c0.136-0.339,0.509-0.328,0.812-0.324c0.229,0.003,0.305,0.238,0.162,0.362c-0.478,0.414-0.818,0.872-0.838,1.534
             C429.901,338.299,429.69,338.362,429.601,338.415z"/>
           <path d="M175.377,417.027c0.828-0.441,1.611-1.023,2.935-0.865C177.256,416.855,176.314,416.934,175.377,417.027z"/>
           <path d="M482.757,375.063c-0.6-0.092-1.108,0.193-1.44-0.321c-0.039-0.062,0.055-0.297,0.141-0.337
             C482.007,374.146,482.327,374.491,482.757,375.063z"/>
           <path fill="none" d="M230.037,392.081c-0.403,0.396-0.087,0.863,0.008,1.341c0.038,0.189,0.051,0.455-0.217,0.513
             c-0.15,0.032-0.416,0.01-0.473-0.084c-0.879-1.441-2.059-0.884-3.077-0.349c-1.029,0.541-2.038,0.482-3.087,0.338
             c-0.365-0.051-0.633-0.209-0.661,0.381c-0.026,0.535-0.456,0.694-0.743,0.234c-0.59-0.947-1.41-0.618-2.187-0.519
             c-1.233,0.159-2.064-0.204-2.373-1.103c-0.068-0.2-0.121-0.413,0.038-0.589c0.137-0.152,0.346-0.146,0.456-0.003
             c0.565,0.733,1.094,0.176,1.333-0.193c0.413-0.635,1.037-0.784,1.59-0.746c0.668,0.047,1.04-0.103,1.356-0.669
             c0.265-0.475,0.619-0.889,1.189-0.266c0.088,0.098,0.367,0.139,0.485,0.073c1.382-0.762,2.776-0.01,4.16-0.054
             c0.17-0.006,0.344,0.059,0.511,0.042C229.44,390.318,230.055,390.883,230.037,392.081z"/>
           <path fill="none" d="M492.304,366.849c0.49,0.384,0.883,0.69,1.31,1.024C492.468,368.279,492.095,367.996,492.304,366.849z"/>
           <path fill="none" d="M457.472,372.14c-0.369,0.195-0.071,0.934-0.686,0.872c-0.201-0.021-0.646-0.132-0.479-0.521
             c0.129-0.3-0.006-0.846,0.59-0.823C457.202,371.68,457.431,371.793,457.472,372.14z"/>
         </g>
       </g>
       </svg>